<?xml version="1.0" encoding="utf-8"?>
<!-- Generator: Adobe Illustrator 21.1.0, SVG Export Plug-In . SVG Version: 6.00 Build 0)  -->
<svg version="1.1" id="logos" xmlns="http://www.w3.org/2000/svg" xmlns:xlink="http://www.w3.org/1999/xlink" x="0px" y="0px"
	 viewBox="0 0 270.5 50.7" style="enable-background:new 0 0 270.5 50.7;" xml:space="preserve">
<style type="text/css">
	.st0{fill:#1D67B8;}
	.st1{clip-path:url(#SVGID_2_);}
	.st2{clip-path:url(#SVGID_4_);}
	.st3{fill:#FFFFFF;}
	.st4{fill:#727272;}
	.st5{fill:#333333;}
	.st6{clip-path:url(#SVGID_6_);}
	.st7{clip-path:url(#SVGID_8_);fill:#808080;}
	.st8{fill:#B5B5B5;}
	.st9{clip-path:url(#SVGID_10_);fill:#FFFFFF;}
	.st10{clip-path:url(#SVGID_12_);fill:#FFFFFF;}
	.st11{clip-path:url(#SVGID_14_);fill:#FFFFFF;}
	.st12{clip-path:url(#SVGID_16_);fill:#FFFFFF;}
	.st13{clip-path:url(#SVGID_18_);fill:none;stroke:#FFFFFF;stroke-width:1.0833;stroke-miterlimit:10;}
	.st14{clip-path:url(#SVGID_20_);}
	.st15{enable-background:new    ;}
</style>
<g>
	<path class="st0" d="M75.4,25.7H62.3v10.5h-7.5V8.9h23.6v6.6H62.3v3.7h13.1V25.7z"/>
	<path class="st0" d="M90,22.6L79.8,8.9H88l6.1,8.2l6.1-8.2h8.2L98.2,22.6l10.2,13.7h-8.2L94.1,28L88,36.3h-8.2L90,22.6z"/>
	<path class="st0" d="M145.3,8.9v27.4h-7.5V19.3l-5.5,12.2h-7.5l-6-12.3v17h-7.5V8.9h9.6l7.7,15.7l7.2-15.7H145.3z"/>
	<path class="st0" d="M170.7,36.3l-1.9-4.7h-11.6l-1.9,4.7h-7.6l11.6-27.4h7.5l11.6,27.4H170.7z M159.7,25.2h6.6L163,17L159.7,25.2z
		"/>
	<path class="st0" d="M207.7,8.9v27.4h-9.2l-10.3-17.5v17.5h-7.5V8.9h9.2l10.3,17.5V8.9H207.7z"/>
	<path class="st0" d="M239.1,14.8v15.5c0,3.2-2.7,5.9-6,5.9H218c-3.2,0-5.9-2.6-5.9-5.9V14.8c0-3.2,2.6-5.9,5.9-5.9h15.1
		C236.3,8.9,239.1,11.5,239.1,14.8z M231.6,17.2c0-0.9-0.8-1.7-1.7-1.7h-8.6c-0.9,0-1.7,0.8-1.7,1.7V28c0,0.9,0.8,1.7,1.7,1.7h8.6
		c0.9,0,1.7-0.8,1.7-1.7V17.2z"/>
	<path class="st0" d="M270.4,14.8v6.6c0,2.9-2.1,5.5-5.3,5.9l5.4,8.9h-8.1l-5.4-8.8h-6v8.8h-7.5V8.9h21
		C267.6,8.9,270.4,11.5,270.4,14.8z M262.9,17.2c0-0.9-0.7-1.7-1.7-1.7H251v5.4h10.2c0.9,0,1.7-0.8,1.7-1.7V17.2z"/>
</g>
<g>
	<path class="st0" d="M54.8,47.2c0-2.3,1.1-3.5,2.9-3.5c0.7,0,1.3,0.2,1.8,0.6c0.5,0.4,0.7,1,0.7,1.7h-1c0-0.9-0.6-1.4-1.5-1.4
		c-1.2,0-1.8,0.9-1.8,2.6c0,1.8,0.7,2.6,1.8,2.6c0.9,0,1.5-0.5,1.5-1.4h1c0,0.7-0.2,1.3-0.7,1.7c-0.5,0.4-1.1,0.6-1.8,0.6
		C55.9,50.7,54.8,49.5,54.8,47.2z"/>
	<path class="st0" d="M61,47.2c0-2.2,1-3.5,2.9-3.5c1.9,0,2.9,1.3,2.9,3.5c0,2.2-1,3.5-2.9,3.5C62,50.7,61,49.4,61,47.2z M63.8,44.6
		c-1.2,0-1.8,0.9-1.8,2.6c0,1.7,0.6,2.6,1.8,2.6s1.8-0.9,1.8-2.6C65.6,45.5,65,44.6,63.8,44.6z"/>
	<path class="st0" d="M67.8,50.6v-6.8h1l2,3.7l2-3.7h1v6.8h-1v-4.8l-1.6,2.9h-0.7l-1.6-2.9v4.8H67.8z"/>
	<path class="st0" d="M75.3,50.6v-6.8h2.2c1.8,0,2.6,0.8,2.6,2.2c0,1.4-0.9,2.2-2.7,2.2h-1v2.4H75.3z M76.3,47.4h1.1
		c1.1,0,1.6-0.4,1.6-1.4c0-1-0.4-1.4-1.5-1.4h-1.1V47.4z"/>
	<path class="st0" d="M84.6,50.6l-0.6-1.7h-2.6l-0.6,1.7h-1.1l2.4-6.8h1l2.4,6.8H84.6z M81.8,48.1h2l-1-3L81.8,48.1z"/>
	<path class="st0" d="M86.6,50.6v-6.8h1l3,4.9v-4.9h1v6.8h-0.9l-3.1-5v5H86.6z"/>
	<path class="st0" d="M96.9,43.8H98l-2.3,4.1v2.7h-1v-2.7l-2.3-4.1h1.1l1.6,3.1L96.9,43.8z"/>
	<path class="st0" d="M101.4,50.6v-6.8h1v6h3.1v0.8H101.4z"/>
	<path class="st0" d="M106.8,50.6v-6h-1.9v-0.8h4.8v0.8h-1.9v6H106.8z"/>
	<path class="st0" d="M110.6,50.6v-6.8h1.8c1,0,1.8,0.3,2.4,0.9c0.6,0.6,0.9,1.4,0.9,2.5c0,1-0.3,1.9-1,2.5
		c-0.6,0.6-1.5,0.9-2.4,0.9H110.6z M111.6,49.8h0.8c0.7,0,1.3-0.2,1.7-0.7c0.4-0.4,0.7-1.1,0.7-1.9c0-1.7-0.9-2.6-2.3-2.6h-0.8V49.8
		z"/>
</g>
<g>
	<g>
		<defs>
			<circle id="SVGID_1_" cx="25.4" cy="25.4" r="25.4"/>
		</defs>
		<clipPath id="SVGID_2_">
			<use xlink:href="#SVGID_1_"  style="overflow:visible;"/>
		</clipPath>
		<g class="st1">
			<g>
				<g>
					<defs>
						<path id="SVGID_3_" d="M15.7,25.2h19.1l12.6,12.6C43,45.5,34.8,50.6,25.2,50.6c-14,0-25.4-11.4-25.4-25.4
							c0-4.7,1.2-8.9,3.3-12.6L15.7,25.2z"/>
					</defs>
					<clipPath id="SVGID_4_">
						<use xlink:href="#SVGID_3_"  style="overflow:visible;"/>
					</clipPath>
					<g class="st2">
						<rect x="-2.6" y="15" class="st3" width="53.4" height="37.4"/>
						<g>
							<rect x="1.5" y="36.2" class="st4" width="46.6" height="2.9"/>
							<rect x="1.9" y="30.2" class="st4" width="46.6" height="2.9"/>
							<rect x="2.2" y="24.4" class="st4" width="46.6" height="2.9"/>
							<rect x="1.5" y="42" class="st4" width="46.6" height="2.9"/>
							<rect x="1.7" y="48" class="st4" width="46.6" height="2.9"/>
						</g>
						<g>
							<rect x="-3.9" y="7.9" class="st5" width="23.8" height="25.2"/>
							<polygon class="st3" points="10.8,30.6 11.7,30.6 11.9,29.8 12.2,30.6 13,30.6 12.4,31.1 12.7,32 11.9,31.4 11.2,32 
								11.5,31.1 							"/>
							<polygon class="st3" points="6.9,30.6 7.8,30.6 8,29.8 8.3,30.6 9.2,30.6 8.4,31.1 8.8,32 8,31.4 7.4,32 7.7,31.1 							"/>
							<polygon class="st3" points="3,30.6 3.9,30.6 4.2,29.8 4.4,30.6 5.3,30.6 4.7,31.1 4.9,32 4.2,31.4 3.5,32 3.8,31.1 							
								"/>
							<polygon class="st3" points="-0.8,30.6 0.1,30.6 0.3,29.8 0.6,30.6 1.4,30.6 0.8,31.1 1.1,32 0.3,31.4 -0.4,32 -0.1,31.1 
															"/>
							<polygon class="st3" points="1.2,27.8 2.1,27.8 2.3,27.1 2.6,27.8 3.4,27.8 2.7,28.4 3,29.3 2.3,28.7 1.5,29.3 1.8,28.4 
															"/>
							<polygon class="st3" points="3,25.1 3.9,25.1 4.2,24.4 4.4,25.1 5.3,25.1 4.7,25.7 4.9,26.5 4.2,26 3.5,26.5 3.8,25.7 
															"/>
							<polygon class="st3" points="6.9,25.1 7.8,25.1 8,24.4 8.3,25.1 9.2,25.1 8.4,25.7 8.8,26.5 8,26 7.4,26.5 7.7,25.7 							
								"/>
							<polygon class="st3" points="10.8,25.1 11.7,25.1 11.9,24.4 12.2,25.1 13,25.1 12.4,25.7 12.7,26.5 11.9,26 11.2,26.5 
								11.5,25.7 							"/>
							<polygon class="st3" points="14.6,25.1 15.5,25.1 15.8,24.4 16,25.1 16.9,25.1 16.3,25.7 16.5,26.5 15.8,26 15.1,26.5 
								15.4,25.7 							"/>
							<polygon class="st3" points="-0.8,25.1 0.1,25.1 0.3,24.4 0.6,25.1 1.4,25.1 0.8,25.7 1.1,26.5 0.3,26 -0.4,26.5 -0.1,25.7 
															"/>
							<polygon class="st3" points="3,19.7 3.9,19.7 4.2,18.9 4.4,19.7 5.3,19.7 4.7,20.2 4.9,21 4.2,20.5 3.5,21 3.8,20.2 							
								"/>
							<polygon class="st3" points="6.9,19.7 7.8,19.7 8,18.9 8.3,19.7 9.2,19.7 8.4,20.2 8.8,21 8,20.5 7.4,21 7.7,20.2 							"/>
							<polygon class="st3" points="10.8,19.7 11.7,19.7 11.9,18.9 12.2,19.7 13,19.7 12.4,20.2 12.7,21 11.9,20.5 11.2,21 
								11.5,20.2 							"/>
							<polygon class="st3" points="-0.8,19.7 0.1,19.7 0.3,18.9 0.6,19.7 1.4,19.7 0.8,20.2 1.1,21 0.3,20.5 -0.4,21 -0.1,20.2 
															"/>
							<polygon class="st3" points="1.2,22.3 2.1,22.3 2.3,21.6 2.6,22.3 3.4,22.3 2.7,22.9 3,23.7 2.3,23.2 1.5,23.7 1.8,22.9 
															"/>
							<polygon class="st3" points="5,22.3 5.8,22.3 6.2,21.6 6.4,22.3 7.3,22.3 6.6,22.9 6.8,23.7 6.2,23.2 5.4,23.7 5.7,22.9 
															"/>
							<polygon class="st3" points="1.2,16.9 2.1,16.9 2.3,16 2.6,16.9 3.4,16.9 2.7,17.4 3,18.3 2.3,17.8 1.5,18.3 1.8,17.4 
															"/>
							<polygon class="st3" points="5,16.9 5.8,16.9 6.2,16 6.4,16.9 7.3,16.9 6.6,17.4 6.8,18.3 6.2,17.8 5.4,18.3 5.7,17.4 
															"/>
							<polygon class="st3" points="3,14.1 3.9,14.1 4.2,13.3 4.4,14.1 5.3,14.1 4.7,14.6 4.9,15.5 4.2,15 3.5,15.5 3.8,14.6 
															"/>
							<polygon class="st3" points="8.9,22.3 9.8,22.3 10,21.6 10.3,22.3 11.2,22.3 10.4,22.9 10.7,23.7 10,23.2 9.3,23.7 9.6,22.9 
															"/>
							<polygon class="st3" points="12.7,22.3 13.5,22.3 13.9,21.6 14.1,22.3 14.9,22.3 14.3,22.9 14.5,23.7 13.9,23.2 13.1,23.7 
								13.4,22.9 							"/>
							<polygon class="st3" points="14.7,30.6 15.5,30.6 15.8,29.8 16,30.6 16.9,30.6 16.3,31.1 16.5,32 15.8,31.4 15.1,32 
								15.4,31.1 							"/>
							<polygon class="st3" points="16.6,27.8 17.4,27.8 17.7,27.1 18,27.8 18.9,27.8 18.1,28.4 18.4,29.3 17.7,28.7 17,29.3 
								17.3,28.4 							"/>
							<polygon class="st3" points="12.7,27.8 13.5,27.8 13.9,27.1 14.1,27.8 14.9,27.8 14.3,28.4 14.5,29.3 13.9,28.7 13.1,29.3 
								13.4,28.4 							"/>
							<polygon class="st3" points="8.9,27.8 9.8,27.8 10,27.1 10.3,27.8 11.2,27.8 10.4,28.4 10.7,29.3 10,28.7 9.3,29.3 9.6,28.4 
															"/>
							<polygon class="st3" points="5,27.8 5.8,27.8 6.2,27.1 6.4,27.8 7.3,27.8 6.6,28.4 6.8,29.3 6.2,28.7 5.4,29.3 5.7,28.4 
															"/>
						</g>
					</g>
				</g>
				<g>
					<g>
						<defs>
							<circle id="SVGID_5_" cx="25.4" cy="25.4" r="25.4"/>
						</defs>
						<clipPath id="SVGID_6_">
							<use xlink:href="#SVGID_5_"  style="overflow:visible;"/>
						</clipPath>
						<g class="st6">
							<g>
								<g>
									<g>
										<defs>
											<path id="SVGID_7_" d="M34.8,25.2H15.7L3.1,12.7C7.5,5,15.7-0.1,25.2-0.1c14,0,25.4,11.4,25.4,25.4
												c0,4.6-1.2,8.9-3.4,12.6C47.3,37.8,34.8,25.2,34.8,25.2z"/>
										</defs>
										<clipPath id="SVGID_8_">
											<use xlink:href="#SVGID_7_"  style="overflow:visible;"/>
										</clipPath>
										<rect x="-3.4" y="-6.5" class="st7" width="70.6" height="50.4"/>
									</g>
									<polygon class="st8" points="12.2,8.2 13.6,3.9 15.1,8.2 19.7,8.2 15.9,10.9 17.4,15.4 13.6,12.7 9.9,15.4 11.3,10.9 
										7.6,8.2 									"/>
									<polygon class="st8" points="28.2,13.9 28.5,12.5 29,13.9 30.5,13.8 29.4,14.6 29.9,16 28.7,15.2 27.5,16.1 27.8,14.7 
										26.7,14 									"/>
									<polygon class="st8" points="24.2,18 25.1,16.9 25,18.3 26.3,18.9 24.9,19.2 24.9,20.7 24,19.5 22.6,19.8 23.6,18.7 
										22.9,17.4 									"/>
									<polygon class="st8" points="28.8,7.4 30.1,6.7 29.5,8 30.4,9.1 29,8.8 28.4,10.2 28.2,8.7 26.7,8.5 28,7.8 27.7,6.4 
																			"/>
									<polygon class="st8" points="24.2,3 25.1,2 25,3.5 26.4,4 24.9,4.3 24.9,5.7 24.2,4.5 22.6,4.9 23.6,3.8 22.9,2.5 
																			"/>
								</g>
								<g>
									<g>
										<defs>
											<circle id="SVGID_9_" cx="25.4" cy="25.4" r="25.4"/>
										</defs>
										<clipPath id="SVGID_10_">
											<use xlink:href="#SVGID_9_"  style="overflow:visible;"/>
										</clipPath>
										<circle class="st9" cx="3.1" cy="12.7" r="3.5"/>
									</g>
									<g>
										<g>
											<defs>
												<circle id="SVGID_11_" cx="25.4" cy="25.4" r="25.4"/>
											</defs>
											<clipPath id="SVGID_12_">
												<use xlink:href="#SVGID_11_"  style="overflow:visible;"/>
											</clipPath>
											<circle class="st10" cx="15.7" cy="25.2" r="3"/>
										</g>
										<g>
											<g>
												<defs>
													<circle id="SVGID_13_" cx="25.4" cy="25.4" r="25.4"/>
												</defs>
												<clipPath id="SVGID_14_">
													<use xlink:href="#SVGID_13_"  style="overflow:visible;"/>
												</clipPath>
												<circle class="st11" cx="34.8" cy="25.2" r="3.5"/>
											</g>
											<g>
												<g>
													<defs>
														<circle id="SVGID_15_" cx="25.4" cy="25.4" r="25.4"/>
													</defs>
													<clipPath id="SVGID_16_">
														<use xlink:href="#SVGID_15_"  style="overflow:visible;"/>
													</clipPath>
													<circle class="st12" cx="47.3" cy="37.8" r="3.6"/>
												</g>
												<g>
													<g>
														<defs>
															<circle id="SVGID_17_" cx="25.4" cy="25.4" r="25.4"/>
														</defs>
														<clipPath id="SVGID_18_">
															<use xlink:href="#SVGID_17_"  style="overflow:visible;"/>
														</clipPath>
														<polyline class="st13" points="3.1,12.7 15.7,25.2 34.8,25.2 47.5,37.9 														"/>
													</g>
												</g>
												<g>
													<defs>
														<circle id="SVGID_19_" cx="25.4" cy="25.4" r="25.4"/>
													</defs>
													<clipPath id="SVGID_20_">
														<use xlink:href="#SVGID_19_"  style="overflow:visible;"/>
													</clipPath>
													<g class="st14">
														<path class="st3" d="M57.9,45.3v7h-1.6v-7H57.9z"/>
														<path class="st3" d="M65.9,52.3h-1.6l-3.1-4.4v4.4h-1.6v-7h1.6l3.1,4.4v-4.4h1.6V52.3z"/>
														<path class="st3" d="M70.5,46.5v6h-1.6v-6h-2.2v-1.2h6.1v1.2H70.5z"/>
														<path class="st3" d="M75.2,48.2h3.3v1.2h-3.3v1.8H79v1.2h-5.4v-7h5.5v1.2h-3.8L75.2,48.2L75.2,48.2z"/>
														<path class="st3" d="M81.9,49.5v2.8h-1.6v-7h3.3c0.9,0,1.5,0.2,2.1,0.5c0.5,0.4,0.8,0.9,0.8,1.5
															c0,0.4-0.1,0.9-0.4,1.2c-0.2,0.3-0.6,0.5-1.1,0.8l1.8,3h-1.8l-1.6-2.8H81.9z M83.4,48.3c0.4,0,0.7-0.1,0.9-0.2
															c0.2-0.2,0.3-0.4,0.3-0.8c0-0.3-0.1-0.5-0.3-0.6c-0.2-0.2-0.5-0.2-0.9-0.2h-1.5v2L83.4,48.3L83.4,48.3z"/>
														<path class="st3" d="M94,52.3h-1.6l-3.1-4.4v4.4h-1.6v-7h1.6l3.1,4.4v-4.4H94V52.3z"/>
														<path class="st3" d="M97.1,51l-0.5,1.4h-1.7l3-7h1.3l3,7h-1.7L99.9,51H97.1z M98.6,47.1l-1.1,2.7h2.1L98.6,47.1z"/>
														<path class="st3" d="M105.5,46.5v6h-1.6v-6h-2.2v-1.2h6.1v1.2H105.5z"/>
														<path class="st3" d="M110.3,45.3v7h-1.6v-7H110.3z"/>
														<path class="st3" d="M111.7,48c0-1.8,1.1-2.8,3.1-2.8c1,0,1.7,0.2,2.3,0.6c0.5,0.4,0.9,1.2,0.9,2.2v1.6
															c0,1-0.3,1.7-0.9,2.2c-0.5,0.4-1.3,0.7-2.3,0.7c-2.1,0-3.1-1-3.1-2.8V48z M116.4,49.6v-1.5c0-0.6-0.1-1.1-0.3-1.3
															s-0.7-0.4-1.1-0.4c-0.5,0-0.9,0.1-1.2,0.4c-0.2,0.2-0.3,0.6-0.3,1.3v1.5c0,0.5,0.1,1,0.3,1.3c0.2,0.2,0.7,0.4,1.2,0.4
															s0.9-0.1,1.1-0.4C116.1,50.6,116.4,50.2,116.4,49.6z"/>
														<path class="st3" d="M125.7,52.3H124l-3.1-4.4v4.4h-1.6v-7h1.6l3.1,4.4v-4.4h1.6V52.3z"/>
														<path class="st3" d="M128.7,51l-0.5,1.4h-1.7l3-7h1.3l3,7h-1.7l-0.5-1.4H128.7z M130.1,47.1l-1.1,2.7h2.1L130.1,47.1z
															"/>
														<path class="st3" d="M136.3,45.3v6h3.8v1.2h-5.4v-7L136.3,45.3L136.3,45.3z"/>
														<path class="st3" d="M143.9,48c0-1.8,1.1-2.8,3.1-2.8c1,0,1.7,0.2,2.3,0.6c0.5,0.4,0.9,1,0.9,1.7v0.1h-1.6v-0.1
															c0-0.3-0.1-0.7-0.4-0.9c-0.2-0.2-0.7-0.3-1.1-0.3c-0.5,0-0.9,0.1-1.2,0.4c-0.2,0.2-0.3,0.6-0.3,1.3v1.5
															c0,0.5,0.1,1,0.3,1.3c0.2,0.2,0.7,0.4,1.2,0.4c0.4,0,0.9-0.1,1.1-0.3s0.3-0.4,0.3-0.9v-0.1h1.6v0.1
															c0,0.8-0.3,1.3-0.9,1.7c-0.5,0.4-1.3,0.6-2.3,0.6c-2.1,0-3.1-1-3.1-2.8L143.9,48L143.9,48z"/>
														<path class="st3" d="M151.4,48c0-1.8,1.1-2.8,3.1-2.8c1,0,1.7,0.2,2.3,0.6c0.5,0.4,0.9,1.2,0.9,2.2v1.6
															c0,1-0.3,1.7-0.9,2.2c-0.5,0.4-1.3,0.7-2.3,0.7c-2.1,0-3.1-1-3.1-2.8V48z M156,49.6v-1.5c0-0.6-0.1-1.1-0.3-1.3
															c-0.2-0.2-0.7-0.4-1.1-0.4c-0.5,0-0.9,0.1-1.2,0.4c-0.2,0.2-0.3,0.6-0.3,1.3v1.5c0,0.5,0.1,1,0.3,1.3
															c0.2,0.2,0.7,0.4,1.2,0.4s0.9-0.1,1.1-0.4C155.9,50.6,156,50.2,156,49.6z"/>
														<path class="st3" d="M166.6,52.3H165v-4.2l-1.6,2.8h-1.1l-1.6-2.8v4.2H159v-7h1.6l2.2,3.9l2.2-3.9h1.6V52.3z"/>
														<path class="st3" d="M174.1,47.5c0,0.6-0.2,1.2-0.8,1.6s-1.2,0.5-2.1,0.5h-1.6v2.7H168v-7h3.3c0.9,0,1.5,0.2,2.1,0.5
															C173.9,46.3,174.1,46.8,174.1,47.5z M172.5,47.5c0-0.3-0.1-0.6-0.3-0.8c-0.2-0.2-0.5-0.3-1-0.3h-1.5v2.1h1.5
															c0.4,0,0.7-0.1,1-0.2C172.4,48.1,172.5,47.8,172.5,47.5z"/>
														<path class="st3" d="M176.2,51l-0.5,1.4h-1.7l3-7h1.3l3,7h-1.7L179,51H176.2z M177.6,47.1l-1.1,2.7h2.1L177.6,47.1z"
															/>
														<path class="st3" d="M188.6,52.3H187l-3.1-4.4v4.4h-1.6v-7h1.6l3.1,4.4v-4.4h1.6V52.3z"/>
														<path class="st3" d="M193.4,52.3h-1.6v-2.9l-2.5-4.2h1.8l1.5,2.8l1.5-2.8h1.8l-2.5,4.1L193.4,52.3L193.4,52.3z"/>
													</g>
												</g>
											</g>
										</g>
										<text transform="matrix(1 0 0 1 72.835 -28.043)" style="font-family:'D-DIN-Bold'; font-size:13px;">INTERNATIONAL COMPANY</text>
										<g id="international" class="st15">
											<path class="st3" d="M57.6,43.7v9H56v-9H57.6z"/>
											<path class="st3" d="M65.7,52.7H64L60.9,47v5.6h-1.6v-9h1.6l3.1,5.6v-5.6h1.6V52.7z"/>
											<path class="st3" d="M70.4,45.2v7.5h-1.6v-7.5h-2.2v-1.5h6.1v1.5H70.4z"/>
											<path class="st3" d="M75.1,47.3h3.3v1.5h-3.3v2.3H79v1.5h-5.5v-9H79v1.5h-3.9V47.3z"/>
											<path class="st3" d="M81.7,49v3.7h-1.6v-9h3.3c0.9,0,1.5,0.2,2.1,0.8c0.5,0.4,0.8,1.1,0.8,2c0,0.5-0.1,1.1-0.4,1.5
												c-0.2,0.4-0.7,0.8-1.1,0.9l1.8,3.9h-1.8L83,49H81.7z M83.3,47.6c0.4,0,0.7-0.1,0.9-0.3s0.3-0.5,0.3-0.9
												c0-0.3-0.1-0.6-0.3-0.9c-0.2-0.2-0.5-0.3-0.9-0.3h-1.5v2.4L83.3,47.6z"/>
											<path class="st3" d="M93.9,52.7h-1.6L89.2,47v5.6h-1.6v-9h1.6l3.1,5.6v-5.6h1.6V52.7z"/>
											<path class="st3" d="M97,50.9l-0.5,1.7h-1.7l3-9H99l3,9h-1.7l-0.3-1.7H97z M98.5,46l-1.1,3.5h2.2L98.5,46z"/>
											<path class="st3" d="M105.4,45.2v7.5h-1.6v-7.5h-2.2v-1.5h6.1v1.5H105.4z"/>
											<path class="st3" d="M110.2,43.7v9h-1.6v-9H110.2z"/>
											<path class="st3" d="M111.7,47.1c0-2.4,1.1-3.6,3.1-3.6c1,0,1.7,0.3,2.3,0.9c0.5,0.5,0.9,1.5,0.9,2.7v2.1
												c0,1.3-0.3,2.2-0.9,2.7c-0.5,0.5-1.3,0.9-2.3,0.9c-2.1,0-3.1-1.2-3.1-3.6V47.1z M116.2,49.2v-2c0-0.8-0.1-1.3-0.3-1.6
												s-0.7-0.5-1.1-0.5c-0.5,0-0.9,0.2-1.2,0.5c-0.2,0.3-0.3,0.9-0.3,1.6v2c0,0.8,0.1,1.3,0.3,1.6c0.2,0.3,0.7,0.4,1.2,0.4
												s0.9-0.2,1.1-0.5C116.1,50.4,116.2,49.8,116.2,49.2z"/>
											<path class="st3" d="M125.7,52.7H124l-3.1-5.6v5.6h-1.6v-9h1.6l3.1,5.6v-5.6h1.6V52.7z"/>
											<path class="st3" d="M128.7,50.9l-0.5,1.7h-1.7l3-9h1.3l3,9h-1.7l-0.5-1.7H128.7z M130.2,46l-1.1,3.5h2.1L130.2,46z"/>
											<path class="st3" d="M136.4,43.7v7.5h3.8v1.5h-5.4v-9L136.4,43.7z"/>
											<path class="st3" d="M144,47.1c0-2.4,1.1-3.6,3.1-3.6c1,0,1.7,0.2,2.3,0.8c0.5,0.5,0.9,1.3,0.9,2.2v0.1h-1.6l0,0
												c0-0.4-0.1-0.9-0.4-1.1s-0.7-0.4-1.1-0.4c-0.5,0-0.9,0.2-1.2,0.5c-0.2,0.3-0.3,0.9-0.3,1.6v1.9c0,0.8,0.1,1.3,0.3,1.6
												c0.2,0.3,0.7,0.5,1.2,0.5c0.4,0,0.9-0.1,1.1-0.4c0.2-0.2,0.3-0.6,0.3-1.1v-0.1h1.6v0.1c0,1-0.3,1.7-0.9,2.2
												c-0.5,0.5-1.3,0.8-2.3,0.8c-2.1,0-3.1-1.2-3.1-3.6v-2.1H144z"/>
											<path class="st3" d="M151.4,47.1c0-2.4,1.1-3.6,3.1-3.6c1,0,1.7,0.3,2.3,0.9c0.5,0.5,0.9,1.5,0.9,2.7v2.1
												c0,1.3-0.3,2.2-0.9,2.7c-0.5,0.5-1.3,0.9-2.3,0.9c-2.1,0-3.1-1.2-3.1-3.6V47.1z M156.1,49.2v-2c0-0.8-0.1-1.3-0.3-1.6
												c-0.2-0.3-0.6-0.5-1.1-0.5c-0.5,0-0.9,0.2-1.2,0.5c-0.2,0.3-0.3,0.9-0.3,1.6v2c0,0.8,0.1,1.3,0.3,1.6
												c0.2,0.3,0.6,0.4,1.2,0.4s0.9-0.2,1.1-0.5C156,50.4,156.1,49.8,156.1,49.2z"/>
											<path class="st3" d="M166.7,52.7h-1.6v-5.3l-1.6,3.6h-1.1l-1.6-3.6v5.3h-1.6v-9h1.6l2.2,5l2.2-5h1.6V52.7z"/>
											<path class="st3" d="M174.3,46.5c0,0.9-0.2,1.5-0.8,2c-0.5,0.5-1.2,0.8-2.1,0.8h-1.6v3.4h-1.6v-9h3.3
												c0.9,0,1.5,0.2,2.1,0.8C174,45,174.3,45.6,174.3,46.5z M172.6,46.5c0-0.4-0.1-0.8-0.3-1c-0.2-0.2-0.5-0.3-1-0.3h-1.5v2.6
												h1.5c0.4,0,0.6-0.1,1-0.3C172.5,47.2,172.6,46.9,172.6,46.5z"/>
											<path class="st3" d="M176.3,50.9l-0.5,1.7H174l3-9h1.3l3,9h-1.6l-0.5-1.7H176.3z M177.8,46l-1.1,3.5h2.1L177.8,46z"/>
											<path class="st3" d="M188.8,52.7h-1.6l-3.1-5.6v5.6h-1.6v-9h1.6l3.1,5.6v-5.6h1.6V52.7z"/>
											<path class="st3" d="M193.6,52.7H192V49l-2.5-5.3h1.8l1.5,3.7l1.5-3.7h1.8l-2.5,5.3v3.7H193.6z"/>
										</g>
									</g>
								</g>
							</g>
						</g>
					</g>
				</g>
			</g>
		</g>
	</g>
</g>
</svg>
