<?xml version="1.0" encoding="utf-8"?>
<!-- Generator: Adobe Illustrator 21.1.0, SVG Export Plug-In . SVG Version: 6.00 Build 0)  -->
<svg version="1.1" id="logos" xmlns="http://www.w3.org/2000/svg" xmlns:xlink="http://www.w3.org/1999/xlink" x="0px" y="0px"
	 viewBox="0 0 270.5 50.7" style="enable-background:new 0 0 270.5 50.7;" xml:space="preserve">
<style type="text/css">
	.st0{display:none;}
	.st1{display:inline;fill:#FFFFFF;}
	.st2{display:inline;}
	.st3{fill:url(#SVGID_1_);}
	.st4{fill:url(#SVGID_2_);}
	.st5{fill:url(#SVGID_3_);}
	.st6{clip-path:url(#SVGID_5_);fill:url(#SVGID_6_);}
	.st7{clip-path:url(#SVGID_8_);fill:url(#SVGID_9_);}
	.st8{clip-path:url(#SVGID_11_);}
	.st9{fill:url(#SVGID_12_);}
	.st10{clip-path:url(#SVGID_14_);}
	.st11{clip-path:url(#SVGID_16_);}
	.st12{fill:#FFFFFF;}
	.st13{fill:url(#SVGID_17_);}
	.st14{fill:url(#SVGID_18_);}
	.st15{fill:url(#SVGID_19_);}
	.st16{fill:url(#SVGID_20_);}
	.st17{fill:url(#SVGID_21_);}
	.st18{fill:url(#SVGID_22_);}
	.st19{clip-path:url(#SVGID_24_);}
	.st20{clip-path:url(#SVGID_26_);fill:url(#SVGID_27_);}
	.st21{fill:url(#SVGID_28_);}
	.st22{fill:url(#SVGID_29_);}
	.st23{fill:url(#SVGID_30_);}
	.st24{fill:url(#SVGID_31_);}
	.st25{fill:url(#SVGID_32_);}
	.st26{clip-path:url(#SVGID_34_);fill:#FFFFFF;}
	.st27{clip-path:url(#SVGID_36_);fill:#FFFFFF;}
	.st28{clip-path:url(#SVGID_38_);fill:#FFFFFF;}
	.st29{clip-path:url(#SVGID_40_);fill:#FFFFFF;}
	.st30{clip-path:url(#SVGID_42_);fill:none;stroke:#FFFFFF;stroke-width:1.0696;stroke-miterlimit:10;}
	.st31{clip-path:url(#SVGID_44_);}
	.st32{enable-background:new    ;}
	.st33{fill:#1D67B8;}
</style>
<rect class="st0" width="270.4" height="50.7"/>
<g class="st0">
	<path class="st1" d="M135.2-54.1c-2.1,0-3.3,0.9-4.2,2c-0.9,1.1-1.5,2.5-1.5,4.7c0,6.8,0,13.8,0,20.7h8l0.2-10.5h18v-6.6l-18.2,0.1
		c-0.1-1.6-0.1-3,1-3.5c1.4-0.7,4.1-0.5,6.7-0.5c3.5,0,7.5,0,10.6,0v-6.4C150.7-54.1,140.3-54.1,135.2-54.1z"/>
	<polygon class="st1" points="188,-54.1 180.2,-54.1 173.7,-44.7 167.1,-54.2 158.9,-54.2 168.3,-40.7 158.9,-26.8 166.7,-26.7 
		173.6,-36.7 180.4,-26.7 188.5,-26.7 178.8,-40.7 	"/>
	<path class="st1" d="M212.3-54.1h-17.7c-2.9,0-5.3,2.4-5.3,5.4V-32c0,3,2.4,5.4,5.3,5.4h17.7c3,0,5.3-2.4,5.3-5.4v-4H211v0.3
		c0,1.6-1.2,2.9-2.7,2.9h-9c-1.5,0-2.7-1.3-2.7-2.9v-8.9c0-1.6,1.2-2.9,2.7-2.9h9c1.4,0,2.5,1.1,2.7,2.4h6.6v-3.6
		C217.6-51.7,215.2-54.1,212.3-54.1z"/>
	<path class="st1" d="M253-54.1h-5.5h-20.3c-3.1,0-5.7,3.4-5.7,7.5v19.9h7.8v-5.6l0,0v-12.2c0-1.8,1.7-3.3,3.9-3.3h2.1
		c0.3,0,0.7,0,1,0.1v15.4l0,0v5.6h7.7v-21c0.3-0.1,0.7-0.1,1-0.1h2.1c0.1,0,0.2,0,0.3,0c1.9,0.2,3.5,1.6,3.5,3.3v17.8h7.7v-19.9
		C258.6-50.8,256.1-54.1,253-54.1z"/>
</g>
<g class="st0">
	<path class="st1" d="M59,48.6h-2.5L56,50.3h-1l2.4-6.6h0.8l2.3,6.6h-0.9L59,48.6z M56.8,47.8h2l-1-2.8l0,0L56.8,47.8z"/>
	<path class="st1" d="M68.5,49.6h3.2v0.7h-4.1v-6.6h0.9V49.6z"/>
	<path class="st1" d="M78.2,47.2h-2.7v2.4h3.2v0.7h-4.1v-6.6h4v0.7h-3.1v2.1h2.7V47.2z"/>
	<path class="st1" d="M86.4,43.7v4.4c0,0.7-0.2,1.3-0.7,1.7s-1.1,0.6-1.8,0.6c-0.7,0-1.3-0.2-1.8-0.6s-0.7-1-0.7-1.7v-4.4h0.9v4.4
		c0,0.5,0.1,0.9,0.4,1.2s0.7,0.4,1.1,0.4c0.5,0,0.9-0.1,1.2-0.4s0.5-0.7,0.5-1.2v-4.4H86.4z"/>
	<path class="st1" d="M94.5,48.2L94.5,48.2c0,0.6-0.2,1.2-0.6,1.6c-0.4,0.4-1,0.6-1.8,0.6c-0.7,0-1.4-0.3-1.8-0.8
		c-0.5-0.5-0.7-1.2-0.7-2v-1.2c0-0.8,0.2-1.5,0.7-2s1.1-0.8,1.8-0.8c0.7,0,1.3,0.2,1.8,0.6c0.4,0.4,0.7,0.9,0.6,1.6l0,0h-0.9
		c0-0.5-0.1-0.8-0.4-1.1s-0.7-0.4-1.1-0.4c-0.5,0-0.9,0.2-1.2,0.6c-0.3,0.4-0.4,0.9-0.4,1.5v1.2c0,0.6,0.1,1.1,0.4,1.5
		s0.7,0.6,1.2,0.6s0.9-0.1,1.1-0.4c0.3-0.3,0.4-0.6,0.4-1.1C93.6,48.2,94.5,48.2,94.5,48.2z"/>
	<path class="st1" d="M100.9,48.6h-2.5l-0.6,1.7h-0.9l2.4-6.6h0.8l2.3,6.6h-0.9L100.9,48.6z M98.7,47.8h2l-1-2.8l0,0L98.7,47.8z"/>
	<path class="st1" d="M105.3,50.3v-6.6h2.1c0.9,0,1.6,0.3,2.1,0.8s0.8,1.2,0.8,2.1v0.9c0,0.8-0.3,1.5-0.8,2.1
		c-0.5,0.5-1.2,0.8-2.1,0.8L105.3,50.3L105.3,50.3z M106.2,44.4v5.2h1.2c0.6,0,1.1-0.2,1.4-0.6c0.4-0.4,0.5-0.9,0.5-1.5v-0.9
		c0-0.6-0.2-1.1-0.5-1.5c-0.4-0.4-0.8-0.6-1.4-0.6h-1.2V44.4z"/>
	<path class="st1" d="M114.4,50.3h-0.9v-6.6h0.9V50.3z"/>
	<path class="st1" d="M121.5,48.6H119l-0.6,1.7h-0.9l2.4-6.6h0.8l2.3,6.6h-1L121.5,48.6z M119.2,47.8h2l-1-2.8l0,0L119.2,47.8z"/>
	<path class="st1" d="M134.7,48.2L134.7,48.2c0,0.6-0.2,1.2-0.6,1.6c-0.4,0.4-1,0.6-1.8,0.6c-0.7,0-1.4-0.3-1.8-0.8
		c-0.5-0.5-0.7-1.2-0.7-2v-1.2c0-0.8,0.2-1.5,0.7-2s1.1-0.8,1.8-0.8s1.3,0.2,1.8,0.6c0.4,0.4,0.7,0.9,0.6,1.6l0,0h-0.9
		c0-0.5-0.1-0.8-0.4-1.1c-0.3-0.3-0.7-0.4-1.1-0.4c-0.5,0-0.9,0.2-1.2,0.6s-0.4,0.9-0.4,1.5v1.2c0,0.6,0.1,1.1,0.4,1.5
		c0.3,0.4,0.7,0.6,1.2,0.6s0.9-0.1,1.1-0.4c0.3-0.3,0.4-0.6,0.4-1.1C133.8,48.2,134.7,48.2,134.7,48.2z"/>
	<path class="st1" d="M142.8,47.6c0,0.8-0.2,1.5-0.7,2s-1.1,0.8-1.9,0.8c-0.8,0-1.4-0.3-1.9-0.8s-0.7-1.2-0.7-2v-1.2
		c0-0.8,0.2-1.5,0.7-2s1.1-0.8,1.9-0.8c0.8,0,1.4,0.3,1.9,0.8s0.7,1.2,0.7,2V47.6z M141.9,46.4c0-0.6-0.2-1.1-0.5-1.5
		s-0.8-0.6-1.3-0.6s-0.9,0.2-1.2,0.6c-0.3,0.4-0.5,0.9-0.5,1.5v1.2c0,0.6,0.2,1.1,0.5,1.5s0.7,0.6,1.2,0.6c0.6,0,1-0.2,1.3-0.6
		c0.3-0.4,0.5-0.9,0.5-1.5V46.4z"/>
	<path class="st1" d="M149.3,49L149.3,49l2.1-5.4h1.1v6.6h-0.9v-4.9l0,0l-2,4.9H149l-2.1-5.1l0,0v5.1H146v-6.6h1.2L149.3,49z"/>
	<path class="st1" d="M156.8,47.6v2.6h-0.9v-6.6h2.5c0.7,0,1.2,0.2,1.6,0.5c0.4,0.4,0.6,0.8,0.6,1.4c0,0.6-0.2,1.1-0.6,1.4
		c-0.4,0.4-0.9,0.5-1.6,0.5h-1.6V47.6z M156.8,46.9h1.6c0.4,0,0.8-0.1,1-0.4c0.2-0.2,0.3-0.5,0.3-0.9s-0.1-0.7-0.3-0.9
		s-0.6-0.4-1-0.4h-1.6V46.9z"/>
	<path class="st1" d="M166.5,48.6H164l-0.6,1.7h-0.9l2.4-6.6h0.8l2.3,6.6h-0.9L166.5,48.6z M164.3,47.8h2l-1-2.8l0,0L164.3,47.8z"/>
	<path class="st1" d="M175.8,50.3H175l-3.2-5l0,0v5h-0.9v-6.6h0.9l3.2,5l0,0v-5h0.9L175.8,50.3L175.8,50.3z"/>
	<path class="st1" d="M181.3,47l1.7-3.3h1l-2.3,4.3v2.3h-0.9v-2.4l-2.3-4.2h1L181.3,47z"/>
</g>
<g class="st0">
	<g class="st2">
		
			<linearGradient id="SVGID_1_" gradientUnits="userSpaceOnUse" x1="205.6517" y1="17.8302" x2="233.846" y2="58.1453" gradientTransform="matrix(1 0 0 -1 0 52)">
			<stop  offset="0" style="stop-color:#B7853C"/>
			<stop  offset="0.4666" style="stop-color:#F3E180"/>
			<stop  offset="0.5348" style="stop-color:#FBFFFF"/>
			<stop  offset="0.5864" style="stop-color:#FFE57F"/>
			<stop  offset="1" style="stop-color:#986E34"/>
		</linearGradient>
		<path class="st3" d="M211.1,31.7l10.2-13.9c0.9-1.2,1.7-2.6,2.2-3.9c0.5-1.4,0.8-2.7,0.8-3.9l0,0c0-2.9-0.9-5.2-2.6-6.9
			c-1.7-1.6-4.2-2.4-7.4-2.4c-2.8,0-5.1,0.8-6.9,2.5c-0.8,0.8-1.5,1.7-2,2.7c-0.7,1.3-1.1,2.7-1.3,4.4l0,0h5.1l0,0
			c0.2-1.6,0.7-2.8,1.6-3.7c0.9-0.9,2.1-1.3,3.5-1.3c1.5,0,2.7,0.4,3.5,1.2c0.3,0.3,0.5,0.6,0.7,0.9l0,0c0.4,0.7,0.5,1.5,0.5,2.4
			v0.1c0,0.9-0.2,1.8-0.6,2.8c-0.4,1-1,2-1.7,2.9L204.4,32v3.3c0,0.6,0.5,1,1,1h18.9v-4.7h-13.2V31.7z"/>
		
			<linearGradient id="SVGID_2_" gradientUnits="userSpaceOnUse" x1="207.9772" y1="17.95" x2="231.8086" y2="17.95" gradientTransform="matrix(1 0 0 -1 0 52)">
			<stop  offset="0" style="stop-color:#765326"/>
			<stop  offset="0.4147" style="stop-color:#C59C68"/>
			<stop  offset="0.4763" style="stop-color:#CEAC75"/>
			<stop  offset="0.627" style="stop-color:#E1CD91"/>
			<stop  offset="0.7091" style="stop-color:#E8DA9B"/>
			<stop  offset="0.8358" style="stop-color:#C59C68"/>
			<stop  offset="1" style="stop-color:#8C6A3A"/>
		</linearGradient>
		<polygon class="st4" points="224.5,31.7 224.5,36.4 207.7,36.4 211.1,31.7 		"/>
		
			<linearGradient id="SVGID_3_" gradientUnits="userSpaceOnUse" x1="199.2513" y1="32.5513" x2="216.5714" y2="49.8713" gradientTransform="matrix(1 0 0 -1 0 52)">
			<stop  offset="0" style="stop-color:#8C6A3A"/>
			<stop  offset="0.1642" style="stop-color:#C59C68"/>
			<stop  offset="0.2909" style="stop-color:#E8DA9B"/>
			<stop  offset="0.373" style="stop-color:#E1CD91"/>
			<stop  offset="0.5237" style="stop-color:#CEAC75"/>
			<stop  offset="0.5853" style="stop-color:#C59C68"/>
			<stop  offset="0.7762" style="stop-color:#765326"/>
		</linearGradient>
		<path class="st5" d="M218.6,7.4c-0.2-0.3-0.4-0.6-0.7-0.9c-0.8-0.8-2-1.2-3.5-1.2c-1.4,0-2.6,0.4-3.5,1.3s-1.4,2.1-1.6,3.7l0,0
			h-5.1l0,0c0.2-1.7,0.7-3.2,1.3-4.4C209.9,3.7,216.9,3,218.6,7.4z"/>
	</g>
	<g class="st2">
		<g>
			<defs>
				<polygon id="SVGID_4_" points="225.1,-0.5 225.1,37.3 238.7,37.3 238.7,23.3 247.1,23.3 247.1,-0.5 				"/>
			</defs>
			<clipPath id="SVGID_5_">
				<use xlink:href="#SVGID_4_"  style="overflow:visible;"/>
			</clipPath>
			
				<linearGradient id="SVGID_6_" gradientUnits="userSpaceOnUse" x1="219.9419" y1="10.4359" x2="246.3841" y2="49.0538" gradientTransform="matrix(1 0 0 -1 0 52)">
				<stop  offset="0" style="stop-color:#B7853C"/>
				<stop  offset="0.4393" style="stop-color:#F3E180"/>
				<stop  offset="0.5045" style="stop-color:#FBFFFF"/>
				<stop  offset="0.5742" style="stop-color:#E6D175"/>
				<stop  offset="0.8955" style="stop-color:#AB8644"/>
				<stop  offset="0.9197" style="stop-color:#A78040"/>
				<stop  offset="1" style="stop-color:#986E34"/>
			</linearGradient>
			<path class="st6" d="M243.1,3.1c-1.7-1.8-4.2-2.7-7.5-2.7s-5.8,0.9-7.5,2.7s-2.5,4.2-2.5,7.4v16.1c0,3,0.8,5.4,2.4,7.2
				c0,0.1,0.1,0.1,0.2,0.2c1.7,1.8,4.2,2.7,7.6,2.7c3.3,0,5.8-0.9,7.5-2.7s2.5-4.2,2.5-7.4V10.4C245.6,7.3,244.7,4.8,243.1,3.1z
				 M240.6,27.3c-0.1,1.3-0.5,2.4-1.2,3.2c-0.5,0.6-1.3,1.1-2.3,1.3c-0.5,0.1-1,0.2-1.6,0.2c-1.8,0-3.1-0.5-3.9-1.4
				c-0.8-0.9-1.2-2.3-1.2-3.9V10.4c0-1.7,0.4-3,1.2-3.9s2.1-1.4,3.9-1.4c0.3,0,0.6,0,0.8,0l0,0h0.1c0.1,0,0.3,0,0.4,0.1
				c0.7,0.1,1.3,0.3,1.7,0.6c0.3,0.2,0.6,0.4,0.8,0.6c0,0,0.1,0,0.1,0.1c0.8,0.9,1.2,2.2,1.2,3.9v16.1c0,0.2,0,0.4,0,0.6
				C240.6,27.2,240.6,27.2,240.6,27.3z"/>
		</g>
		<g>
			<defs>
				<polygon id="SVGID_7_" points="225.1,-0.5 225.1,37.3 238.7,37.3 238.7,23.3 247.1,23.3 247.1,-0.5 				"/>
			</defs>
			<clipPath id="SVGID_8_">
				<use xlink:href="#SVGID_7_"  style="overflow:visible;"/>
			</clipPath>
			
				<linearGradient id="SVGID_9_" gradientUnits="userSpaceOnUse" x1="233.3204" y1="10.52" x2="245.1665" y2="47.3338" gradientTransform="matrix(1 0 0 -1 0 52)">
				<stop  offset="0" style="stop-color:#8C6A3A"/>
				<stop  offset="0.2182" style="stop-color:#E8DA9B"/>
				<stop  offset="0.3206" style="stop-color:#E1CD91"/>
				<stop  offset="0.5084" style="stop-color:#CEAC75"/>
				<stop  offset="0.5853" style="stop-color:#C59C68"/>
				<stop  offset="0.7762" style="stop-color:#765326"/>
			</linearGradient>
			<path class="st7" d="M245.6,18v8.5c0,3.1-0.8,5.6-2.5,7.4c-1.7,1.8-4.2,2.7-7.5,2.7c-3.4,0-5.9-0.9-7.6-2.7
				c-0.1-0.1-0.1-0.1-0.2-0.2c2.3,0,6.4-0.4,9.3-2c1-0.2,1.8-0.6,2.3-1.3c0.7-0.8,1.1-1.9,1.2-3.2v-0.1c0.1-0.4,0.1-0.7,0.1-1.1
				c0-1.1,0-2.2-0.1-3.2V10.4c0-1.7-0.4-3-1.2-3.9c0,0,0,0-0.1-0.1c-0.2-0.3-0.5-0.5-0.8-0.6c-0.5-0.3-1.1-0.5-1.7-0.6
				C241.4,5.8,244.3,8,245.6,18z"/>
		</g>
		<g>
			<defs>
				<polygon id="SVGID_10_" points="225.1,-0.5 225.1,37.3 238.7,37.3 238.7,23.3 247.1,23.3 247.1,-0.5 				"/>
			</defs>
			<clipPath id="SVGID_11_">
				<use xlink:href="#SVGID_10_"  style="overflow:visible;"/>
			</clipPath>
			<g class="st8">
				
					<linearGradient id="SVGID_12_" gradientUnits="userSpaceOnUse" x1="245.8172" y1="50.9016" x2="239.3945" y2="42.9059" gradientTransform="matrix(1 0 0 -1 0 52)">
					<stop  offset="0" style="stop-color:#CCE0F4;stop-opacity:0"/>
					<stop  offset="0.2823" style="stop-color:#D5E6F6;stop-opacity:0.2823"/>
					<stop  offset="0.7501" style="stop-color:#EFF5FB;stop-opacity:0.7501"/>
					<stop  offset="1" style="stop-color:#FFFFFF"/>
				</linearGradient>
				<path class="st9" d="M243.1,3.1c-1.7-1.8-4.2-2.7-7.5-2.7s-5.8,0.9-7.5,2.7s-2.5,4.2-2.5,7.4v16.1c0,3,0.8,5.4,2.4,7.2
					c2.3,0,6.4-0.4,9.3-2c-0.5,0.1-1,0.2-1.6,0.2c-1.8,0-3.1-0.5-3.9-1.4c-0.8-0.9-1.2-2.3-1.2-3.9V10.4c0-1.7,0.4-3,1.2-3.9
					s2.1-1.4,3.9-1.4c0.3,0,0.6,0,0.8,0l0,0h0.1c0.1,0,0.3,0,0.4,0.1c4.6,0.6,7.5,2.8,8.7,12.8v-7.6C245.6,7.3,244.7,4.8,243.1,3.1z
					"/>
			</g>
		</g>
	</g>
</g>
<g class="st0">
	<path class="st1" d="M243.6,31.7L243.6,31.7l1.3-3.7h1.6l-2.2,5.4v3h-1.5v-3l-2.1-5.4h1.6L243.6,31.7z"/>
	<path class="st1" d="M251,32.8h-2.3v2.1h2.7v1.5h-4.2V28h4.2v1.5h-2.7v1.8h2.3V32.8z"/>
	<path class="st1" d="M256.2,34.8h-1.9l-0.4,1.6h-1.6l2.1-8.4h0.8l0,0l0,0h0.8l2.1,8.4h-1.6L256.2,34.8z M254.6,33.3h1.2l-0.6-2.6
		l0,0L254.6,33.3z"/>
	<path class="st1" d="M260.6,33.2v3.2h-1.5V28h2.2c0.7,0,1.3,0.2,1.8,0.7s0.7,1.1,0.7,1.8c0,0.4-0.1,0.8-0.3,1.1
		c-0.2,0.3-0.4,0.6-0.8,0.8c0.4,0.1,0.7,0.4,0.8,0.7c0.2,0.3,0.3,0.8,0.3,1.3V35c0,0.2,0,0.5,0.1,0.8s0.1,0.5,0.3,0.6v0.1h-1.5
		c-0.1-0.1-0.2-0.3-0.2-0.6s-0.1-0.6-0.1-0.8v-0.5c0-0.4-0.1-0.7-0.2-0.9c-0.2-0.2-0.4-0.3-0.7-0.3h-0.9V33.2z M260.6,31.7h0.8
		c0.3,0,0.5-0.1,0.7-0.3c0.2-0.2,0.2-0.4,0.2-0.8c0-0.3-0.1-0.6-0.2-0.8c-0.2-0.2-0.4-0.3-0.7-0.3h-0.7L260.6,31.7L260.6,31.7z"/>
	<path class="st1" d="M268.8,34.2c0-0.3-0.1-0.5-0.2-0.7c-0.2-0.2-0.4-0.3-0.8-0.5c-0.8-0.3-1.4-0.7-1.8-1.1s-0.6-0.9-0.6-1.7
		c0-0.7,0.2-1.3,0.7-1.7c0.5-0.4,1-0.7,1.7-0.7s1.3,0.2,1.8,0.7s0.7,1.1,0.6,1.9l0,0h-1.4c0-0.4-0.1-0.7-0.2-0.9
		c-0.2-0.2-0.4-0.3-0.7-0.3c-0.3,0-0.5,0.1-0.6,0.3s-0.2,0.4-0.2,0.6s0.1,0.4,0.2,0.6c0.2,0.1,0.5,0.3,0.9,0.6
		c0.7,0.3,1.3,0.6,1.7,1.1c0.4,0.4,0.6,1,0.6,1.7s-0.2,1.3-0.7,1.7s-1,0.6-1.8,0.6c-0.7,0-1.3-0.2-1.8-0.7s-0.8-1.2-0.7-2.1l0,0h1.5
		c0,0.5,0.1,0.8,0.3,1c0.2,0.2,0.5,0.3,0.8,0.3s0.5-0.1,0.7-0.2C268.7,34.6,268.8,34.4,268.8,34.2z"/>
</g>
<g class="st0">
	<path class="st1" d="M211.1,45.8c0,1.2-0.3,2.3-1,3.1s-1.5,1.2-2.6,1.2s-1.9-0.4-2.6-1.2c-0.7-0.8-1-1.8-1-3.1V44
		c0-1.2,0.3-2.3,1-3.1s1.5-1.2,2.6-1.2s1.9,0.4,2.6,1.2c0.7,0.8,1,1.8,1,3.1V45.8z M209.1,44c0-0.7-0.1-1.3-0.4-1.8
		c-0.3-0.5-0.7-0.7-1.2-0.7s-0.9,0.2-1.2,0.7s-0.4,1.1-0.4,1.8v1.8c0,0.7,0.1,1.3,0.4,1.8c0.3,0.5,0.7,0.7,1.2,0.7s0.9-0.2,1.2-0.7
		s0.4-1.1,0.4-1.8V44z"/>
	<path class="st1" d="M217.3,45.9h-3.1V50h-2V39.9h5.7v1.8h-3.7v2.4h3.1V45.9z"/>
	<path class="st1" d="M227.3,41.7h-2.2V50h-2v-8.3h-2.2v-1.8h6.4V41.7z"/>
	<path class="st1" d="M230.3,46.1V50h-2V39.9h2.9c1,0,1.8,0.3,2.3,0.8c0.6,0.5,0.9,1.3,0.9,2.2c0,0.5-0.1,1-0.3,1.3s-0.6,0.7-1,0.9
		c0.5,0.2,0.9,0.5,1.1,0.9c0.2,0.4,0.3,0.9,0.3,1.5v0.6c0,0.3,0,0.6,0.1,0.9c0.1,0.3,0.2,0.6,0.3,0.7V50h-2
		c-0.2-0.1-0.3-0.4-0.3-0.8c0-0.4-0.1-0.7-0.1-1v-0.6c0-0.5-0.1-0.8-0.3-1.1s-0.5-0.4-0.9-0.4C231.3,46.1,230.3,46.1,230.3,46.1z
		 M230.3,44.3h1c0.4,0,0.7-0.1,0.9-0.3s0.3-0.5,0.3-0.9s-0.1-0.7-0.3-1s-0.5-0.4-0.9-0.4h-1V44.3z"/>
	<path class="st1" d="M240.6,48h-2.5l-0.5,2h-2.1l2.8-10.1h1.1l0,0l0,0h1.1l2.8,10.1h-2.1L240.6,48z M238.5,46.2h1.6l-0.8-3.1l0,0
		L238.5,46.2z"/>
	<path class="st1" d="M244,50V39.9h3.1c1,0,1.8,0.4,2.5,1.2s1,1.8,1,3v1.8c0,1.2-0.3,2.2-1,3s-1.5,1.2-2.5,1.2H244V50z M246,41.7
		v6.5h1.1c0.4,0,0.8-0.2,1.1-0.7c0.3-0.4,0.4-1,0.4-1.7V44c0-0.7-0.1-1.2-0.4-1.7c-0.3-0.4-0.7-0.7-1.1-0.7H246V41.7z"/>
	<path class="st1" d="M253.6,50h-2V39.9h2V50z"/>
	<path class="st1" d="M262.1,50h-2l-3.1-6.4l0,0V50h-2V39.9h2l3.1,6.4l0,0V40h2V50z"/>
	<path class="st1" d="M270.2,48.6c-0.3,0.4-0.7,0.8-1.2,1.1s-1.2,0.5-2.1,0.5c-1,0-1.9-0.4-2.6-1.2s-1-1.8-1-3v-2.1
		c0-1.2,0.3-2.2,1-3c0.6-0.8,1.5-1.2,2.5-1.2c1.1,0,1.9,0.3,2.4,0.9c0.6,0.6,0.8,1.4,0.8,2.4l0,0h-1.8c0-0.5-0.1-0.9-0.3-1.1
		c-0.2-0.2-0.6-0.4-1-0.4c-0.5,0-0.8,0.2-1.1,0.6c-0.3,0.4-0.4,1-0.4,1.7V46c0,0.7,0.1,1.3,0.4,1.7s0.7,0.6,1.2,0.6
		c0.4,0,0.6,0,0.9-0.1c0.2-0.1,0.4-0.2,0.5-0.3v-1.8h-1.5v-1.6h3.5v4.1H270.2z"/>
</g>
<g class="st0">
	<path class="st1" d="M65.6,113.8c-0.1-1.1-0.1-2.5-0.1-3.5h0c-0.3,0.9-0.6,2-1,3.1l-1.4,3.9h-0.8l-1.3-3.9
		c-0.4-1.1-0.7-2.2-0.9-3.1h0c0,1-0.1,2.4-0.2,3.6l-0.2,3.5h-1l0.6-8.1h1.3l1.4,3.9c0.3,1,0.6,1.9,0.8,2.7h0
		c0.2-0.8,0.5-1.7,0.9-2.7l1.4-3.9h1.3l0.5,8.1h-1L65.6,113.8z"/>
	<path class="st1" d="M69.6,114.8l-0.8,2.5h-1.1l2.7-8.1h1.3l2.8,8.1h-1.1l-0.9-2.5H69.6z M72.3,113.9l-0.8-2.3
		c-0.2-0.5-0.3-1-0.4-1.5h0c-0.1,0.5-0.3,1-0.4,1.5l-0.8,2.3H72.3z"/>
	<path class="st1" d="M75.7,117.3v-8.1h1.1l2.6,4.1c0.6,0.9,1.1,1.8,1.5,2.6l0,0c-0.1-1.1-0.1-2.1-0.1-3.3v-3.4h1v8.1h-1.1l-2.6-4.1
		c-0.6-0.9-1.1-1.8-1.5-2.7l0,0c0.1,1,0.1,2,0.1,3.3v3.5H75.7z"/>
	<path class="st1" d="M90.5,113.2c0,2.8-1.7,4.3-3.8,4.3c-2.1,0-3.6-1.7-3.6-4.1c0-2.6,1.6-4.2,3.8-4.2
		C89,109.1,90.5,110.8,90.5,113.2z M84.2,113.3c0,1.7,0.9,3.3,2.6,3.3c1.7,0,2.6-1.5,2.6-3.4c0-1.6-0.8-3.3-2.6-3.3
		C85.1,109.9,84.2,111.5,84.2,113.3z"/>
	<path class="st1" d="M91.8,109.3c0.5-0.1,1.3-0.2,2-0.2c1.1,0,1.8,0.2,2.3,0.7c0.4,0.4,0.6,0.9,0.6,1.5c0,1.1-0.7,1.8-1.5,2.1v0
		c0.6,0.2,1,0.8,1.2,1.6c0.3,1.1,0.5,1.9,0.6,2.2H96c-0.1-0.2-0.3-0.9-0.5-1.9c-0.2-1.1-0.7-1.5-1.6-1.6h-1v3.5h-1V109.3z M92.9,113
		h1.1c1.1,0,1.8-0.6,1.8-1.5c0-1-0.8-1.5-1.9-1.5c-0.5,0-0.9,0-1,0.1V113z"/>
	<path class="st1" d="M100.8,109.3c0.5-0.1,1.2-0.2,1.9-0.2c1,0,1.7,0.2,2.2,0.6c0.4,0.3,0.7,0.8,0.7,1.4c0,0.8-0.5,1.5-1.4,1.8v0
		c0.8,0.2,1.7,0.8,1.7,2c0,0.7-0.3,1.2-0.7,1.6c-0.6,0.5-1.5,0.8-2.8,0.8c-0.7,0-1.3,0-1.6-0.1V109.3z M101.9,112.6h0.9
		c1.1,0,1.8-0.6,1.8-1.4c0-0.9-0.7-1.3-1.8-1.3c-0.5,0-0.8,0-0.9,0.1V112.6z M101.9,116.5c0.2,0,0.5,0,0.9,0c1.1,0,2.1-0.4,2.1-1.6
		c0-1.1-0.9-1.6-2.1-1.6h-0.9V116.5z"/>
	<path class="st1" d="M107.3,109.3c0.5-0.1,1.3-0.2,2-0.2c1.1,0,1.8,0.2,2.3,0.7c0.4,0.4,0.6,0.9,0.6,1.5c0,1.1-0.7,1.8-1.5,2.1v0
		c0.6,0.2,1,0.8,1.2,1.6c0.3,1.1,0.5,1.9,0.6,2.2h-1.1c-0.1-0.2-0.3-0.9-0.5-1.9c-0.2-1.1-0.7-1.5-1.6-1.6h-1v3.5h-1V109.3z
		 M108.4,113h1.1c1.1,0,1.8-0.6,1.8-1.5c0-1-0.8-1.5-1.9-1.5c-0.5,0-0.9,0-1,0.1V113z"/>
	<path class="st1" d="M120.7,113.2c0,2.8-1.7,4.3-3.8,4.3c-2.1,0-3.6-1.7-3.6-4.1c0-2.6,1.6-4.2,3.8-4.2
		C119.3,109.1,120.7,110.8,120.7,113.2z M114.5,113.3c0,1.7,0.9,3.3,2.6,3.3c1.7,0,2.6-1.5,2.6-3.4c0-1.6-0.8-3.3-2.6-3.3
		C115.3,109.9,114.5,111.5,114.5,113.3z"/>
	<path class="st1" d="M122.1,109.2h1v3.9h0c0.2-0.3,0.4-0.6,0.6-0.9l2.5-3h1.3l-2.9,3.4l3.2,4.7h-1.2l-2.7-4l-0.8,0.9v3.1h-1V109.2z
		"/>
	<path class="st1" d="M132.8,113.5h-3.1v2.9h3.5v0.9h-4.5v-8.1h4.4v0.9h-3.3v2.6h3.1V113.5z"/>
	<path class="st1" d="M134.5,109.3c0.5-0.1,1.3-0.2,2-0.2c1.1,0,1.8,0.2,2.3,0.7c0.4,0.4,0.6,0.9,0.6,1.5c0,1.1-0.7,1.8-1.5,2.1v0
		c0.6,0.2,1,0.8,1.2,1.6c0.3,1.1,0.5,1.9,0.6,2.2h-1.1c-0.1-0.2-0.3-0.9-0.5-1.9c-0.2-1.1-0.7-1.5-1.6-1.6h-1v3.5h-1V109.3z
		 M135.5,113h1.1c1.1,0,1.8-0.6,1.8-1.5c0-1-0.8-1.5-1.9-1.5c-0.5,0-0.9,0-1,0.1V113z"/>
	<path class="st1" d="M140.8,116c0.5,0.3,1.2,0.5,1.9,0.5c1.1,0,1.7-0.6,1.7-1.4c0-0.8-0.4-1.2-1.5-1.6c-1.3-0.5-2.1-1.2-2.1-2.3
		c0-1.3,1-2.2,2.6-2.2c0.8,0,1.4,0.2,1.8,0.4l-0.3,0.9c-0.3-0.1-0.8-0.4-1.5-0.4c-1.1,0-1.5,0.7-1.5,1.2c0,0.8,0.5,1.1,1.6,1.6
		c1.4,0.5,2.1,1.2,2.1,2.4c0,1.2-0.9,2.3-2.8,2.3c-0.8,0-1.6-0.2-2.1-0.5L140.8,116z"/>
	<path class="st1" d="M150.5,109.2v8.1h-1v-8.1H150.5z"/>
	<path class="st1" d="M152.3,117.3v-8.1h1.1l2.6,4.1c0.6,0.9,1.1,1.8,1.5,2.6l0,0c-0.1-1.1-0.1-2.1-0.1-3.3v-3.4h1v8.1h-1.1
		l-2.6-4.1c-0.6-0.9-1.1-1.8-1.5-2.7l0,0c0.1,1,0.1,2,0.1,3.3v3.5H152.3z"/>
	<path class="st1" d="M161.9,117.3l-2.6-8.1h1.1l1.3,4c0.3,1.1,0.6,2.1,0.9,3h0c0.2-0.9,0.6-2,0.9-3l1.4-4h1.1l-2.9,8.1H161.9z"/>
	<path class="st1" d="M171.1,113.5h-3.1v2.9h3.5v0.9h-4.5v-8.1h4.4v0.9h-3.3v2.6h3.1V113.5z"/>
	<path class="st1" d="M172.6,116c0.5,0.3,1.2,0.5,1.9,0.5c1.1,0,1.7-0.6,1.7-1.4c0-0.8-0.4-1.2-1.5-1.6c-1.3-0.5-2.1-1.2-2.1-2.3
		c0-1.3,1-2.2,2.6-2.2c0.8,0,1.4,0.2,1.8,0.4l-0.3,0.9c-0.3-0.1-0.8-0.4-1.5-0.4c-1.1,0-1.5,0.7-1.5,1.2c0,0.8,0.5,1.1,1.6,1.6
		c1.4,0.5,2.1,1.2,2.1,2.4c0,1.2-0.9,2.3-2.8,2.3c-0.8,0-1.6-0.2-2.1-0.5L172.6,116z"/>
	<path class="st1" d="M180.2,110.1h-2.5v-0.9h6v0.9h-2.5v7.2h-1.1V110.1z"/>
	<path class="st1" d="M191.5,113.8c-0.1-1.1-0.1-2.5-0.1-3.5h0c-0.3,0.9-0.6,2-1,3.1l-1.4,3.9h-0.8l-1.3-3.9
		c-0.4-1.1-0.7-2.2-0.9-3.1h0c0,1-0.1,2.4-0.2,3.6l-0.2,3.5h-1l0.6-8.1h1.3l1.4,3.9c0.3,1,0.6,1.9,0.8,2.7h0
		c0.2-0.8,0.5-1.7,0.9-2.7l1.4-3.9h1.3l0.5,8.1h-1L191.5,113.8z"/>
	<path class="st1" d="M198.5,113.5h-3.1v2.9h3.5v0.9h-4.5v-8.1h4.4v0.9h-3.3v2.6h3.1V113.5z"/>
	<path class="st1" d="M200.2,117.3v-8.1h1.1l2.6,4.1c0.6,0.9,1.1,1.8,1.5,2.6l0,0c-0.1-1.1-0.1-2.1-0.1-3.3v-3.4h1v8.1h-1.1
		l-2.6-4.1c-0.6-0.9-1.1-1.8-1.5-2.7l0,0c0.1,1,0.1,2,0.1,3.3v3.5H200.2z"/>
	<path class="st1" d="M209.6,110.1h-2.5v-0.9h6v0.9h-2.5v7.2h-1.1V110.1z"/>
</g>
<g>
	<g>
		<defs>
			<circle id="SVGID_13_" cx="26" cy="25.7" r="25"/>
		</defs>
		<clipPath id="SVGID_14_">
			<use xlink:href="#SVGID_13_"  style="overflow:visible;"/>
		</clipPath>
		<g class="st10">
			<g>
				<g>
					<defs>
						<path id="SVGID_15_" d="M16.5,25.6h18.8L47.7,38c-4.3,7.6-12.4,12.6-21.8,12.6c-13.8,0-25-11.2-25-25C0.8,21,2,16.8,4,13.2
							L16.5,25.6z"/>
					</defs>
					<clipPath id="SVGID_16_">
						<use xlink:href="#SVGID_15_"  style="overflow:visible;"/>
					</clipPath>
					<g class="st11">
						<rect x="-1.6" y="15.4" class="st12" width="52.7" height="36.9"/>
						<g>
							<linearGradient id="SVGID_17_" gradientUnits="userSpaceOnUse" x1="2.4393" y1="37.8111" x2="48.4329" y2="37.8111">
								<stop  offset="0" style="stop-color:#B7853C"/>
								<stop  offset="0.3903" style="stop-color:#F3E180"/>
								<stop  offset="0.4206" style="stop-color:#F6E9A3"/>
								<stop  offset="0.4683" style="stop-color:#FBF5D5"/>
								<stop  offset="0.5045" style="stop-color:#FEFCF3"/>
								<stop  offset="0.5248" style="stop-color:#FFFFFF"/>
								<stop  offset="0.6015" style="stop-color:#FFE57F"/>
								<stop  offset="1" style="stop-color:#986E34"/>
							</linearGradient>
							<rect x="2.4" y="36.4" class="st13" width="46" height="2.9"/>
							<linearGradient id="SVGID_18_" gradientUnits="userSpaceOnUse" x1="2.8671" y1="31.9282" x2="48.8608" y2="31.9282">
								<stop  offset="0" style="stop-color:#B7853C"/>
								<stop  offset="0.3903" style="stop-color:#F3E180"/>
								<stop  offset="0.4206" style="stop-color:#F6E9A3"/>
								<stop  offset="0.4683" style="stop-color:#FBF5D5"/>
								<stop  offset="0.5045" style="stop-color:#FEFCF3"/>
								<stop  offset="0.5248" style="stop-color:#FFFFFF"/>
								<stop  offset="0.6015" style="stop-color:#FFE57F"/>
								<stop  offset="1" style="stop-color:#986E34"/>
							</linearGradient>
							<rect x="2.9" y="30.5" class="st14" width="46" height="2.9"/>
							<linearGradient id="SVGID_19_" gradientUnits="userSpaceOnUse" x1="3.081" y1="26.1522" x2="49.0747" y2="26.1522">
								<stop  offset="0" style="stop-color:#B7853C"/>
								<stop  offset="0.3903" style="stop-color:#F3E180"/>
								<stop  offset="0.4206" style="stop-color:#F6E9A3"/>
								<stop  offset="0.4683" style="stop-color:#FBF5D5"/>
								<stop  offset="0.5045" style="stop-color:#FEFCF3"/>
								<stop  offset="0.5248" style="stop-color:#FFFFFF"/>
								<stop  offset="0.6015" style="stop-color:#FFE57F"/>
								<stop  offset="1" style="stop-color:#986E34"/>
							</linearGradient>
							<rect x="3.1" y="24.7" class="st15" width="46" height="2.9"/>
							<linearGradient id="SVGID_20_" gradientUnits="userSpaceOnUse" x1="2.4393" y1="43.587" x2="48.4329" y2="43.587">
								<stop  offset="0" style="stop-color:#B7853C"/>
								<stop  offset="0.3903" style="stop-color:#F3E180"/>
								<stop  offset="0.4206" style="stop-color:#F6E9A3"/>
								<stop  offset="0.4683" style="stop-color:#FBF5D5"/>
								<stop  offset="0.5045" style="stop-color:#FEFCF3"/>
								<stop  offset="0.5248" style="stop-color:#FFFFFF"/>
								<stop  offset="0.6015" style="stop-color:#FFE57F"/>
								<stop  offset="1" style="stop-color:#986E34"/>
							</linearGradient>
							<rect x="2.4" y="42.1" class="st16" width="46" height="2.9"/>
							<linearGradient id="SVGID_21_" gradientUnits="userSpaceOnUse" x1="2.6532" y1="49.4699" x2="48.6468" y2="49.4699">
								<stop  offset="0" style="stop-color:#B7853C"/>
								<stop  offset="0.3903" style="stop-color:#F3E180"/>
								<stop  offset="0.4206" style="stop-color:#F6E9A3"/>
								<stop  offset="0.4683" style="stop-color:#FBF5D5"/>
								<stop  offset="0.5045" style="stop-color:#FEFCF3"/>
								<stop  offset="0.5248" style="stop-color:#FFFFFF"/>
								<stop  offset="0.6015" style="stop-color:#FFE57F"/>
								<stop  offset="1" style="stop-color:#986E34"/>
							</linearGradient>
							<rect x="2.7" y="48" class="st17" width="46" height="2.9"/>
						</g>
						<g>
							<linearGradient id="SVGID_22_" gradientUnits="userSpaceOnUse" x1="-11.0755" y1="20.9111" x2="12.4561" y2="20.9111">
								<stop  offset="0" style="stop-color:#B7853C"/>
								<stop  offset="0.3903" style="stop-color:#F3E180"/>
								<stop  offset="0.4206" style="stop-color:#F6E9A3"/>
								<stop  offset="0.4683" style="stop-color:#FBF5D5"/>
								<stop  offset="0.5045" style="stop-color:#FEFCF3"/>
								<stop  offset="0.5248" style="stop-color:#FFFFFF"/>
								<stop  offset="0.6015" style="stop-color:#FFE57F"/>
								<stop  offset="1" style="stop-color:#986E34"/>
							</linearGradient>
							<rect x="-2.9" y="8.5" class="st18" width="23.5" height="24.9"/>
							<polygon class="st12" points="11.6,30.8 12.5,30.8 12.7,30.1 13,30.8 13.8,30.8 13.1,31.3 13.5,32.2 12.7,31.7 12,32.2 
								12.3,31.3 							"/>
							<polygon class="st12" points="7.8,30.8 8.6,30.8 8.9,30.1 9.2,30.8 10,30.8 9.3,31.3 9.6,32.2 8.9,31.7 8.2,32.2 8.5,31.3 
															"/>
							<polygon class="st12" points="3.9,30.8 4.8,30.8 5.1,30.1 5.3,30.8 6.2,30.8 5.5,31.3 5.8,32.2 5.1,31.7 4.4,32.2 4.7,31.3 
															"/>
							<polygon class="st12" points="0.2,30.8 1,30.8 1.3,30.1 1.6,30.8 2.3,30.8 1.7,31.3 2,32.2 1.3,31.7 0.5,32.2 0.8,31.3 
															"/>
							<polygon class="st12" points="2.1,28.1 3,28.1 3.2,27.4 3.5,28.1 4.3,28.1 3.6,28.7 3.9,29.5 3.2,29 2.4,29.5 2.8,28.7 
															"/>
							<polygon class="st12" points="3.9,25.5 4.8,25.5 5.1,24.7 5.3,25.5 6.2,25.5 5.5,26 5.8,26.8 5.1,26.3 4.4,26.8 4.7,26 
															"/>
							<polygon class="st12" points="7.8,25.5 8.6,25.5 8.9,24.7 9.2,25.5 10,25.5 9.3,26 9.6,26.8 8.9,26.3 8.2,26.8 8.5,26 
															"/>
							<polygon class="st12" points="11.6,25.5 12.5,25.5 12.7,24.7 13,25.5 13.8,25.5 13.1,26 13.5,26.8 12.7,26.3 12,26.8 
								12.3,26 							"/>
							<polygon class="st12" points="15.4,25.5 16.2,25.5 16.6,24.7 16.8,25.5 17.6,25.5 17,26 17.2,26.8 16.6,26.3 15.8,26.8 
								16.1,26 							"/>
							<polygon class="st12" points="0.2,25.5 1,25.5 1.3,24.7 1.6,25.5 2.3,25.5 1.7,26 2,26.8 1.3,26.3 0.5,26.8 0.8,26 							
								"/>
							<polygon class="st12" points="3.9,20.1 4.8,20.1 5.1,19.3 5.3,20.1 6.2,20.1 5.5,20.5 5.8,21.4 5.1,20.9 4.4,21.4 4.7,20.5 
															"/>
							<polygon class="st12" points="7.8,20.1 8.6,20.1 8.9,19.3 9.2,20.1 10,20.1 9.3,20.5 9.6,21.4 8.9,20.9 8.2,21.4 8.5,20.5 
															"/>
							<polygon class="st12" points="11.6,20.1 12.5,20.1 12.7,19.3 13,20.1 13.8,20.1 13.1,20.5 13.5,21.4 12.7,20.9 12,21.4 
								12.3,20.5 							"/>
							<polygon class="st12" points="0.2,20.1 1,20.1 1.3,19.3 1.6,20.1 2.3,20.1 1.7,20.5 2,21.4 1.3,20.9 0.5,21.4 0.8,20.5 
															"/>
							<polygon class="st12" points="2.1,22.7 3,22.7 3.2,21.9 3.5,22.7 4.3,22.7 3.6,23.2 3.9,24.1 3.2,23.5 2.4,24.1 2.8,23.2 
															"/>
							<polygon class="st12" points="5.9,22.7 6.7,22.7 7,21.9 7.3,22.7 8.1,22.7 7.5,23.2 7.7,24.1 7,23.5 6.3,24.1 6.6,23.2 
															"/>
							<polygon class="st12" points="2.1,17.3 3,17.3 3.2,16.5 3.5,17.3 4.3,17.3 3.6,17.9 3.9,18.7 3.2,18.2 2.4,18.7 2.8,17.9 
															"/>
							<polygon class="st12" points="5.9,17.3 6.7,17.3 7,16.5 7.3,17.3 8.1,17.3 7.5,17.9 7.7,18.7 7,18.2 6.3,18.7 6.6,17.9 
															"/>
							<polygon class="st12" points="3.9,14.5 4.8,14.5 5.1,13.8 5.3,14.5 6.2,14.5 5.5,15.1 5.8,15.9 5.1,15.4 4.4,15.9 4.7,15.1 
															"/>
							<polygon class="st12" points="9.7,22.7 10.6,22.7 10.8,21.9 11.1,22.7 12,22.7 11.2,23.2 11.5,24.1 10.8,23.5 10.1,24.1 
								10.5,23.2 							"/>
							<polygon class="st12" points="13.5,22.7 14.3,22.7 14.6,21.9 14.8,22.7 15.7,22.7 15.1,23.2 15.3,24.1 14.6,23.5 13.9,24.1 
								14.2,23.2 							"/>
							<polygon class="st12" points="15.5,30.8 16.2,30.8 16.6,30.1 16.8,30.8 17.6,30.8 17,31.3 17.2,32.2 16.6,31.7 15.8,32.2 
								16.1,31.3 							"/>
							<polygon class="st12" points="17.3,28.1 18.2,28.1 18.4,27.4 18.7,28.1 19.6,28.1 18.8,28.7 19.1,29.5 18.4,29 17.7,29.5 
								18.1,28.7 							"/>
							<polygon class="st12" points="13.5,28.1 14.3,28.1 14.6,27.4 14.8,28.1 15.7,28.1 15.1,28.7 15.3,29.5 14.6,29 13.9,29.5 
								14.2,28.7 							"/>
							<polygon class="st12" points="9.7,28.1 10.6,28.1 10.8,27.4 11.1,28.1 12,28.1 11.2,28.7 11.5,29.5 10.8,29 10.1,29.5 
								10.5,28.7 							"/>
							<polygon class="st12" points="5.9,28.1 6.7,28.1 7,27.4 7.3,28.1 8.1,28.1 7.5,28.7 7.7,29.5 7,29 6.3,29.5 6.6,28.7 							
								"/>
						</g>
					</g>
				</g>
				<g>
					<g>
						<defs>
							<circle id="SVGID_23_" cx="26" cy="25.7" r="25"/>
						</defs>
						<clipPath id="SVGID_24_">
							<use xlink:href="#SVGID_23_"  style="overflow:visible;"/>
						</clipPath>
						<g class="st19">
							<g>
								<g>
									<g>
										<defs>
											<path id="SVGID_25_" d="M35.3,25.6H16.5L4,13.2C8.3,5.6,16.5,0.5,25.9,0.5c13.8,0,25,11.2,25,25c0,4.5-1.2,8.8-3.3,12.4
												C47.7,38,35.3,25.6,35.3,25.6z"/>
										</defs>
										<clipPath id="SVGID_26_">
											<use xlink:href="#SVGID_25_"  style="overflow:visible;"/>
										</clipPath>
										<linearGradient id="SVGID_27_" gradientUnits="userSpaceOnUse" x1="1.9495" y1="19.0927" x2="50.1752" y2="19.0927">
											<stop  offset="0" style="stop-color:#B7853C"/>
											<stop  offset="0.3903" style="stop-color:#F3E180"/>
											<stop  offset="0.4206" style="stop-color:#F6E9A3"/>
											<stop  offset="0.4683" style="stop-color:#FBF5D5"/>
											<stop  offset="0.5045" style="stop-color:#FEFCF3"/>
											<stop  offset="0.5248" style="stop-color:#FFFFFF"/>
											<stop  offset="0.6015" style="stop-color:#FFE57F"/>
											<stop  offset="1" style="stop-color:#986E34"/>
										</linearGradient>
										<rect x="-2.4" y="-5.8" class="st20" width="69.7" height="49.7"/>
									</g>
									<linearGradient id="SVGID_28_" gradientUnits="userSpaceOnUse" x1="3.3458" y1="10.1614" x2="15.3255" y2="10.1614">
										<stop  offset="0" style="stop-color:#B7853C"/>
										<stop  offset="0.3903" style="stop-color:#F3E180"/>
										<stop  offset="0.4206" style="stop-color:#F6E9A3"/>
										<stop  offset="0.4683" style="stop-color:#FBF5D5"/>
										<stop  offset="0.5045" style="stop-color:#FEFCF3"/>
										<stop  offset="0.5248" style="stop-color:#FFFFFF"/>
										<stop  offset="0.8059" style="stop-color:#FFE57F"/>
										<stop  offset="1" style="stop-color:#986E34"/>
									</linearGradient>
									<polygon class="st21" points="13,8.8 14.4,4.5 15.8,8.8 20.4,8.8 16.7,11.4 18.2,15.8 14.4,13.2 10.7,15.8 12.1,11.4 
										8.4,8.8 									"/>
									<linearGradient id="SVGID_29_" gradientUnits="userSpaceOnUse" x1="26.3794" y1="14.7608" x2="30.2301" y2="14.7608">
										<stop  offset="0" style="stop-color:#B7853C"/>
										<stop  offset="0.3903" style="stop-color:#F3E180"/>
										<stop  offset="0.4206" style="stop-color:#F6E9A3"/>
										<stop  offset="0.4683" style="stop-color:#FBF5D5"/>
										<stop  offset="0.5045" style="stop-color:#FEFCF3"/>
										<stop  offset="0.5248" style="stop-color:#FFFFFF"/>
										<stop  offset="0.6015" style="stop-color:#FFE57F"/>
										<stop  offset="1" style="stop-color:#986E34"/>
									</linearGradient>
									<polygon class="st22" points="28.8,14.3 29.1,12.9 29.6,14.3 31.1,14.2 29.9,15.1 30.5,16.5 29.3,15.6 28.1,16.6 
										28.4,15.2 27.3,14.4 									"/>
									<linearGradient id="SVGID_30_" gradientUnits="userSpaceOnUse" x1="22.5885" y1="19.1997" x2="26.2252" y2="19.1997">
										<stop  offset="0" style="stop-color:#B7853C"/>
										<stop  offset="0.3903" style="stop-color:#F3E180"/>
										<stop  offset="0.4206" style="stop-color:#F6E9A3"/>
										<stop  offset="0.4683" style="stop-color:#FBF5D5"/>
										<stop  offset="0.5045" style="stop-color:#FEFCF3"/>
										<stop  offset="0.5248" style="stop-color:#FFFFFF"/>
										<stop  offset="0.6015" style="stop-color:#FFE57F"/>
										<stop  offset="1" style="stop-color:#986E34"/>
									</linearGradient>
									<polygon class="st23" points="24.8,18.4 25.8,17.3 25.7,18.7 26.9,19.3 25.5,19.6 25.5,21.1 24.7,19.9 23.3,20.2 
										24.3,19.1 23.5,17.9 									"/>
									<linearGradient id="SVGID_31_" gradientUnits="userSpaceOnUse" x1="26.6711" y1="8.8244" x2="30.4148" y2="8.8244">
										<stop  offset="0" style="stop-color:#B7853C"/>
										<stop  offset="0.3903" style="stop-color:#F3E180"/>
										<stop  offset="0.4206" style="stop-color:#F6E9A3"/>
										<stop  offset="0.4683" style="stop-color:#FBF5D5"/>
										<stop  offset="0.5045" style="stop-color:#FEFCF3"/>
										<stop  offset="0.5248" style="stop-color:#FFFFFF"/>
										<stop  offset="0.6015" style="stop-color:#FFE57F"/>
										<stop  offset="1" style="stop-color:#986E34"/>
									</linearGradient>
									<polygon class="st24" points="29.4,7.9 30.7,7.3 30,8.6 31,9.6 29.6,9.3 29,10.7 28.8,9.2 27.3,9 28.5,8.3 28.3,7 
																			"/>
									<linearGradient id="SVGID_32_" gradientUnits="userSpaceOnUse" x1="22.4635" y1="4.4389" x2="26.2072" y2="4.4389">
										<stop  offset="0" style="stop-color:#B7853C"/>
										<stop  offset="0.3903" style="stop-color:#F3E180"/>
										<stop  offset="0.4206" style="stop-color:#F6E9A3"/>
										<stop  offset="0.4683" style="stop-color:#FBF5D5"/>
										<stop  offset="0.5045" style="stop-color:#FEFCF3"/>
										<stop  offset="0.5248" style="stop-color:#FFFFFF"/>
										<stop  offset="0.6015" style="stop-color:#FFE57F"/>
										<stop  offset="1" style="stop-color:#986E34"/>
									</linearGradient>
									<polygon class="st25" points="24.8,3.6 25.8,2.6 25.7,4.1 27,4.6 25.5,4.9 25.5,6.3 24.8,5.1 23.3,5.5 24.3,4.4 23.5,3.1 
																			"/>
								</g>
								<g>
									<g>
										<defs>
											<circle id="SVGID_33_" cx="26" cy="25.7" r="25"/>
										</defs>
										<clipPath id="SVGID_34_">
											<use xlink:href="#SVGID_33_"  style="overflow:visible;"/>
										</clipPath>
										<circle class="st26" cx="4" cy="13.2" r="3.4"/>
									</g>
									<g>
										<g>
											<defs>
												<circle id="SVGID_35_" cx="26" cy="25.7" r="25"/>
											</defs>
											<clipPath id="SVGID_36_">
												<use xlink:href="#SVGID_35_"  style="overflow:visible;"/>
											</clipPath>
											<circle class="st27" cx="16.5" cy="25.6" r="3"/>
										</g>
										<g>
											<g>
												<defs>
													<circle id="SVGID_37_" cx="26" cy="25.7" r="25"/>
												</defs>
												<clipPath id="SVGID_38_">
													<use xlink:href="#SVGID_37_"  style="overflow:visible;"/>
												</clipPath>
												<circle class="st28" cx="35.3" cy="25.6" r="3.4"/>
											</g>
											<g>
												<g>
													<defs>
														<circle id="SVGID_39_" cx="26" cy="25.7" r="25"/>
													</defs>
													<clipPath id="SVGID_40_">
														<use xlink:href="#SVGID_39_"  style="overflow:visible;"/>
													</clipPath>
													<circle class="st29" cx="47.7" cy="38" r="3.5"/>
												</g>
												<g>
													<g>
														<defs>
															<circle id="SVGID_41_" cx="26" cy="25.7" r="25"/>
														</defs>
														<clipPath id="SVGID_42_">
															<use xlink:href="#SVGID_41_"  style="overflow:visible;"/>
														</clipPath>
														<polyline class="st30" points="4,13.2 16.5,25.6 35.3,25.6 47.8,38.1 														"/>
													</g>
												</g>
												<g>
													<defs>
														<circle id="SVGID_43_" cx="26" cy="25.7" r="25"/>
													</defs>
													<clipPath id="SVGID_44_">
														<use xlink:href="#SVGID_43_"  style="overflow:visible;"/>
													</clipPath>
													<g class="st31">
														<path class="st12" d="M58.1,45.4v7h-1.6v-7H58.1z"/>
														<path class="st12" d="M66,52.3h-1.6l-3.1-4.4v4.4h-1.6v-7h1.6l3.1,4.4v-4.4H66V52.3z"/>
														<path class="st12" d="M70.6,46.5v5.9H69v-5.9h-2.1v-1.2h6v1.2H70.6z"/>
														<path class="st12" d="M75.2,48.2h3.2v1.2h-3.2v1.8h3.7v1.2h-5.3v-7H79v1.2h-3.7L75.2,48.2L75.2,48.2z"/>
														<path class="st12" d="M81.8,49.5v2.8h-1.6v-7h3.2c0.9,0,1.5,0.2,2,0.5c0.5,0.4,0.7,0.9,0.7,1.5c0,0.4-0.1,0.9-0.4,1.2
															c-0.2,0.3-0.6,0.5-1.1,0.7l1.8,3h-1.8l-1.6-2.8H81.8z M83.3,48.3c0.4,0,0.6-0.1,0.9-0.2c0.2-0.2,0.3-0.4,0.3-0.7
															s-0.1-0.5-0.3-0.6c-0.2-0.2-0.5-0.2-0.9-0.2h-1.5v1.9L83.3,48.3L83.3,48.3z"/>
														<path class="st12" d="M93.8,52.3h-1.6l-3.1-4.4v4.4h-1.6v-7h1.6l3.1,4.4v-4.4h1.6V52.3z"/>
														<path class="st12" d="M96.8,51l-0.5,1.4h-1.7l3-7h1.3l3,7h-1.7L99.6,51H96.8z M98.3,47.2l-1.1,2.7h2L98.3,47.2z"/>
														<path class="st12" d="M105.1,46.5v5.9h-1.6v-5.9h-2.1v-1.2h6v1.2H105.1z"/>
														<path class="st12" d="M109.8,45.4v7h-1.6v-7H109.8z"/>
														<path class="st12" d="M111.2,48c0-1.8,1.1-2.8,3.1-2.8c1,0,1.7,0.2,2.2,0.6c0.5,0.4,0.9,1.2,0.9,2.1v1.6
															c0,1-0.3,1.7-0.9,2.1c-0.5,0.4-1.3,0.6-2.2,0.6c-2,0-3.1-1-3.1-2.8V48z M115.8,49.6v-1.5c0-0.6-0.1-1.1-0.3-1.3
															c-0.2-0.2-0.6-0.4-1.1-0.4c-0.5,0-0.9,0.1-1.2,0.4c-0.2,0.2-0.3,0.6-0.3,1.3v1.5c0,0.5,0.1,1,0.3,1.3
															c0.2,0.2,0.6,0.4,1.2,0.4c0.5,0,0.9-0.1,1.1-0.4C115.6,50.6,115.8,50.2,115.8,49.6z"/>
														<path class="st12" d="M125,52.3h-1.6l-3.1-4.4v4.4h-1.6v-7h1.6l3.1,4.4v-4.4h1.6V52.3z"/>
														<path class="st12" d="M128,51l-0.5,1.4h-1.7l3-7h1.3l3,7h-1.7l-0.5-1.4H128z M129.4,47.2l-1.1,2.7h2L129.4,47.2z"/>
														<path class="st12" d="M135.5,45.4v5.9h3.7v1.2h-5.3v-7L135.5,45.4L135.5,45.4z"/>
														<path class="st12" d="M143,48c0-1.8,1.1-2.8,3.1-2.8c1,0,1.7,0.2,2.2,0.6c0.5,0.4,0.9,1,0.9,1.7v0.1h-1.6v-0.1
															c0-0.3-0.1-0.6-0.4-0.9c-0.2-0.2-0.6-0.3-1.1-0.3c-0.5,0-0.9,0.1-1.2,0.4c-0.2,0.2-0.3,0.6-0.3,1.3v1.5
															c0,0.5,0.1,1,0.3,1.3c0.2,0.2,0.6,0.4,1.2,0.4c0.4,0,0.9-0.1,1.1-0.3c0.2-0.2,0.3-0.4,0.3-0.9v-0.1h1.6v0.1
															c0,0.7-0.3,1.3-0.9,1.7c-0.5,0.4-1.3,0.6-2.2,0.6c-2,0-3.1-1-3.1-2.8L143,48L143,48z"/>
														<path class="st12" d="M150.5,48c0-1.8,1.1-2.8,3.1-2.8c1,0,1.7,0.2,2.2,0.6c0.5,0.4,0.9,1.2,0.9,2.1v1.6
															c0,1-0.3,1.7-0.9,2.1c-0.5,0.4-1.3,0.6-2.2,0.6c-2,0-3.1-1-3.1-2.8V48z M155,49.6v-1.5c0-0.6-0.1-1.1-0.3-1.3
															c-0.2-0.2-0.6-0.4-1.1-0.4c-0.5,0-0.9,0.1-1.2,0.4c-0.2,0.2-0.3,0.6-0.3,1.3v1.5c0,0.5,0.1,1,0.3,1.3
															c0.2,0.2,0.6,0.4,1.2,0.4s0.9-0.1,1.1-0.4C154.9,50.6,155,50.2,155,49.6z"/>
														<path class="st12" d="M165.4,52.3h-1.6v-4.2l-1.6,2.8h-1.1l-1.6-2.8v4.2H158v-7h1.6l2.1,3.9l2.1-3.9h1.6V52.3z"/>
														<path class="st12" d="M172.8,47.5c0,0.6-0.2,1.2-0.7,1.6c-0.5,0.4-1.2,0.5-2,0.5h-1.6v2.7h-1.6v-7h3.2
															c0.9,0,1.5,0.2,2,0.5C172.6,46.3,172.8,46.8,172.8,47.5z M171.2,47.5c0-0.3-0.1-0.6-0.3-0.7c-0.2-0.2-0.5-0.3-1-0.3
															h-1.5v2h1.5c0.4,0,0.6-0.1,1-0.2C171.1,48.1,171.2,47.8,171.2,47.5z"/>
														<path class="st12" d="M174.9,51l-0.5,1.4h-1.7l3-7h1.3l3,7h-1.7l-0.5-1.4H174.9z M176.3,47.2l-1.1,2.7h2L176.3,47.2z"
															/>
														<path class="st12" d="M187.2,52.3h-1.6l-3.1-4.4v4.4h-1.6v-7h1.6l3.1,4.4v-4.4h1.6V52.3z"/>
														<path class="st12" d="M191.9,52.3h-1.6v-2.9l-2.5-4.2h1.8l1.5,2.8l1.5-2.8h1.8l-2.5,4.1L191.9,52.3L191.9,52.3z"/>
													</g>
												</g>
											</g>
										</g>
										<g id="international" class="st32">
											<path class="st12" d="M57.8,43.7v8.9h-1.6v-8.9H57.8z"/>
											<path class="st12" d="M65.8,52.6h-1.6l-3.1-5.6v5.6h-1.6v-8.9h1.6l3.1,5.6v-5.6h1.6V52.6z"/>
											<path class="st12" d="M70.5,45.2v7.4h-1.6v-7.4h-2.1v-1.5h6v1.5H70.5z"/>
											<path class="st12" d="M75.1,47.4h3.2v1.5h-3.2v2.2h3.9v1.5h-5.5v-8.9h5.5v1.5h-3.9V47.4z"/>
											<path class="st12" d="M81.6,49v3.6H80v-8.9h3.2c0.9,0,1.5,0.2,2,0.7c0.5,0.4,0.7,1.1,0.7,1.9c0,0.5-0.1,1.1-0.4,1.5
												c-0.2,0.4-0.6,0.7-1.1,0.9l1.8,3.9h-1.8L82.9,49H81.6z M83.2,47.6c0.4,0,0.6-0.1,0.9-0.3c0.2-0.2,0.3-0.5,0.3-0.9
												c0-0.3-0.1-0.6-0.3-0.9c-0.2-0.2-0.5-0.3-0.9-0.3h-1.5v2.4L83.2,47.6z"/>
											<path class="st12" d="M93.7,52.6h-1.6L89,47.1v5.6h-1.6v-8.9H89l3.1,5.6v-5.6h1.6V52.6z"/>
											<path class="st12" d="M96.7,50.9l-0.5,1.7h-1.7l3-8.9h1.3l3,8.9H100l-0.3-1.7H96.7z M98.2,46.1l-1.1,3.4h2.1L98.2,46.1z"
												/>
											<path class="st12" d="M105,45.2v7.4h-1.6v-7.4h-2.1v-1.5h6v1.5H105z"/>
											<path class="st12" d="M109.7,43.7v8.9h-1.6v-8.9H109.7z"/>
											<path class="st12" d="M111.2,47.2c0-2.4,1.1-3.5,3.1-3.5c1,0,1.7,0.3,2.2,0.9c0.5,0.5,0.9,1.5,0.9,2.7v2
												c0,1.3-0.3,2.1-0.9,2.7c-0.5,0.5-1.3,0.9-2.2,0.9c-2,0-3.1-1.2-3.1-3.5V47.2z M115.7,49.2v-1.9c0-0.7-0.1-1.3-0.3-1.6
												c-0.2-0.3-0.6-0.5-1.1-0.5c-0.5,0-0.9,0.2-1.2,0.5c-0.2,0.3-0.3,0.9-0.3,1.6v1.9c0,0.7,0.1,1.3,0.3,1.6
												c0.2,0.3,0.6,0.4,1.2,0.4c0.5,0,0.9-0.2,1.1-0.5C115.6,50.4,115.7,49.8,115.7,49.2z"/>
											<path class="st12" d="M125,52.6h-1.6l-3.1-5.6v5.6h-1.6v-8.9h1.6l3.1,5.6v-5.6h1.6V52.6z"/>
											<path class="st12" d="M128,50.9l-0.5,1.7h-1.7l3-8.9h1.3l3,8.9h-1.7l-0.5-1.7H128z M129.5,46.1l-1.1,3.4h2L129.5,46.1z"
												/>
											<path class="st12" d="M135.6,43.7v7.4h3.7v1.5H134v-8.9L135.6,43.7z"/>
											<path class="st12" d="M143.1,47.2c0-2.4,1.1-3.5,3.1-3.5c1,0,1.7,0.2,2.2,0.7c0.5,0.5,0.9,1.3,0.9,2.1v0.1h-1.6l0,0
												c0-0.4-0.1-0.9-0.4-1.1s-0.6-0.4-1.1-0.4c-0.5,0-0.9,0.2-1.2,0.5c-0.2,0.3-0.3,0.9-0.3,1.6v1.9c0,0.7,0.1,1.3,0.3,1.6
												c0.2,0.3,0.6,0.5,1.2,0.5c0.4,0,0.9-0.1,1.1-0.4c0.2-0.2,0.3-0.6,0.3-1.1v-0.1h1.6v0.1c0,1-0.3,1.7-0.9,2.1
												c-0.5,0.5-1.3,0.7-2.2,0.7c-2,0-3.1-1.2-3.1-3.5v-2H143.1z"/>
											<path class="st12" d="M150.5,47.2c0-2.4,1.1-3.5,3.1-3.5c1,0,1.7,0.3,2.2,0.9c0.5,0.5,0.9,1.5,0.9,2.7v2
												c0,1.3-0.3,2.1-0.9,2.7c-0.5,0.5-1.3,0.9-2.2,0.9c-2,0-3.1-1.2-3.1-3.5V47.2z M155.1,49.2v-1.9c0-0.7-0.1-1.3-0.3-1.6
												c-0.2-0.3-0.6-0.5-1.1-0.5c-0.5,0-0.9,0.2-1.2,0.5c-0.2,0.3-0.3,0.9-0.3,1.6v1.9c0,0.7,0.1,1.3,0.3,1.6
												c0.2,0.3,0.6,0.4,1.2,0.4c0.5,0,0.9-0.2,1.1-0.5C155,50.4,155.1,49.8,155.1,49.2z"/>
											<path class="st12" d="M165.6,52.6H164v-5.2l-1.6,3.5h-1.1l-1.6-3.5v5.2h-1.6v-8.9h1.6l2.1,4.9l2.1-4.9h1.6V52.6z"/>
											<path class="st12" d="M173,46.5c0,0.9-0.2,1.5-0.7,1.9c-0.5,0.5-1.2,0.7-2,0.7h-1.6v3.3h-1.6v-8.9h3.2
												c0.9,0,1.5,0.2,2,0.7C172.7,45,173,45.7,173,46.5z M171.3,46.5c0-0.4-0.1-0.7-0.3-1c-0.2-0.2-0.5-0.3-1-0.3h-1.5v2.6h1.5
												c0.4,0,0.6-0.1,1-0.3C171.2,47.3,171.3,47,171.3,46.5z"/>
											<path class="st12" d="M175,50.9l-0.5,1.7h-1.7l3-8.9h1.3l3,8.9h-1.6l-0.5-1.7H175z M176.5,46.1l-1.1,3.4h2L176.5,46.1z"
												/>
											<path class="st12" d="M187.4,52.6h-1.6l-3.1-5.6v5.6h-1.6v-8.9h1.6l3.1,5.6v-5.6h1.6V52.6z"/>
											<path class="st12" d="M192.1,52.6h-1.6V49l-2.5-5.2h1.8l1.5,3.6l1.5-3.6h1.8l-2.5,5.2v3.6H192.1z"/>
										</g>
									</g>
								</g>
							</g>
						</g>
					</g>
				</g>
			</g>
		</g>
	</g>
</g>
<text transform="matrix(1 0 0 1 88.5 -184.5)" class="st0" style="font-family:'LustraTextBold-Regular'; font-size:12px;">MBI</text>
<text transform="matrix(1 0 0 1 112.0789 -148)" class="st0"><tspan x="0" y="0" class="st2" style="font-family:'LustraTextBold-Regular'; font-size:12px;">MANOR</tspan><tspan x="0" y="14.4" class="st2" style="font-family:'LustraTextBold-Regular'; font-size:12px;">BROCKERS</tspan><tspan x="0" y="28.8" class="st2" style="font-family:'LustraTextBold-Regular'; font-size:12px;">INVESTMENT</tspan></text>
<path class="st33" d="M176.3,14.1V5h1.3l2.7,4.9L183,5h1.3v9.1H183V7.7l-2.2,3.9h-0.9l-2.2-3.9v6.4H176.3z"/>
<path class="st33" d="M191.9,14.1l-0.7-2.2h-3.4l-0.7,2.2h-1.5l3.2-9.1h1.3l3.2,9.1H191.9z M188.1,10.7h2.7l-1.3-4.1L188.1,10.7z"/>
<path class="st33" d="M194.5,14.1V5h1.4l4,6.5V5h1.4v9.1h-1.2l-4.1-6.7v6.7H194.5z"/>
<path class="st33" d="M202.7,9.6c0-2.9,1.3-4.7,3.8-4.7s3.8,1.8,3.8,4.7c0,2.9-1.4,4.6-3.8,4.6C204.1,14.2,202.7,12.5,202.7,9.6z
	 M206.5,6c-1.6,0-2.4,1.2-2.4,3.5c0,2.3,0.8,3.5,2.4,3.5s2.4-1.2,2.4-3.5C209,7.2,208.2,6,206.5,6z"/>
<path class="st33" d="M218.3,14.1h-1.5l-1.8-3.6h-1.7v3.6h-1.4V5h3.1c2.2,0,3.2,1.1,3.2,2.8c0,1.3-0.8,2.2-1.9,2.5L218.3,14.1z
	 M213.3,9.4h1.8c1.1,0,1.7-0.6,1.7-1.6c0-1.1-0.6-1.7-1.8-1.7h-1.7V9.4z"/>
<path class="st33" d="M176.3,30.1V21h3.3c1.8,0,2.8,1,2.8,2.4c0,0.9-0.5,1.6-1.3,1.9c1.1,0.2,1.8,1,1.8,2.2c0,0.8-0.3,1.4-0.9,1.9
	c-0.6,0.5-1.3,0.7-2.2,0.7H176.3z M177.7,24.9h1.9c0.9,0,1.5-0.5,1.5-1.5c0-0.8-0.6-1.3-1.5-1.3h-1.9V24.9z M177.7,28.9h2
	c1.2,0,1.8-0.5,1.8-1.5c0-0.9-0.7-1.5-1.8-1.5h-2V28.9z"/>
<path class="st33" d="M190.9,30.1h-1.5l-1.8-3.6h-1.7v3.6h-1.4V21h3.1c2.2,0,3.2,1.1,3.2,2.8c0,1.3-0.8,2.2-1.9,2.5L190.9,30.1z
	 M185.9,25.4h1.8c1.1,0,1.7-0.6,1.7-1.6c0-1.1-0.6-1.7-1.8-1.7h-1.7V25.4z"/>
<path class="st33" d="M192,25.5c0-2.9,1.3-4.7,3.8-4.7c2.5,0,3.8,1.8,3.8,4.7c0,2.9-1.4,4.6-3.8,4.6C193.4,30.2,192,28.5,192,25.5z
	 M195.9,22c-1.6,0-2.4,1.2-2.4,3.5c0,2.3,0.8,3.5,2.4,3.5c1.6,0,2.4-1.2,2.4-3.5C198.3,23.2,197.5,22,195.9,22z"/>
<path class="st33" d="M204.6,25.4l3.5,4.6h-1.5l-3.1-4l-0.8,0.2v3.8h-1.4V21h1.4v4.2l0.7-0.2l3-4h1.6L204.6,25.4z"/>
<path class="st33" d="M209.4,30.1V21h5.4v1.1h-4v2.8h3.7V26h-3.7v2.9h4.1v1.1H209.4z"/>
<path class="st33" d="M222.7,30.1h-1.5l-1.8-3.6h-1.7v3.6h-1.4V21h3.1c2.2,0,3.2,1.1,3.2,2.8c0,1.3-0.8,2.2-1.9,2.5L222.7,30.1z
	 M217.7,25.4h1.8c1.1,0,1.7-0.6,1.7-1.6c0-1.1-0.6-1.7-1.8-1.7h-1.7V25.4z"/>
<path class="st33" d="M224.1,27.3h1.3c0,1.3,0.7,1.8,2.1,1.8c1.2,0,1.8-0.6,1.8-1.5c0-0.8-0.7-1.2-2.1-1.6c-0.9-0.2-1.4-0.4-2-0.8
	c-0.6-0.4-1-1-1-1.9c0-0.7,0.3-1.3,0.9-1.8c0.6-0.5,1.4-0.7,2.3-0.7c0.9,0,1.6,0.2,2.2,0.7c0.6,0.4,0.9,1.1,0.9,1.9h-1.3
	c0-1-0.7-1.5-1.8-1.5c-1.2,0-1.8,0.5-1.8,1.4c0,0.8,0.7,1.2,2,1.5c0.7,0.2,1.1,0.3,1.7,0.6c0.9,0.4,1.3,1,1.4,2.1
	c0,0.8-0.3,1.4-0.9,1.9c-0.6,0.5-1.4,0.7-2.4,0.7C225.4,30.2,224.1,29.2,224.1,27.3z"/>
<path class="st33" d="M176.7,46v-9.1h1.4V46H176.7z"/>
<path class="st33" d="M180.4,46v-9.1h1.4l4,6.5v-6.5h1.4V46h-1.2l-4.1-6.7V46H180.4z"/>
<path class="st33" d="M194.6,36.9h1.5l-3.2,9.1h-1.4l-3.2-9.1h1.5l2.4,7.3L194.6,36.9z"/>
<path class="st33" d="M197.3,46v-9.1h5.4v1.1h-4v2.8h3.7V42h-3.7v2.9h4.1V46H197.3z"/>
<path class="st33" d="M204.1,43.3h1.3c0,1.3,0.7,1.8,2.1,1.8c1.2,0,1.8-0.6,1.8-1.5c0-0.8-0.7-1.2-2.1-1.6c-0.9-0.2-1.4-0.4-2-0.8
	c-0.6-0.4-1-1-1-1.9c0-0.7,0.3-1.3,0.9-1.8c0.6-0.5,1.4-0.7,2.3-0.7c0.9,0,1.6,0.2,2.2,0.7c0.6,0.4,0.9,1.1,0.9,1.9h-1.3
	c0-1-0.7-1.5-1.8-1.5c-1.2,0-1.8,0.5-1.8,1.4c0,0.8,0.7,1.2,2,1.5c0.7,0.2,1.1,0.3,1.7,0.6c0.9,0.4,1.3,1,1.4,2.1
	c0,0.8-0.3,1.4-0.9,1.9c-0.6,0.5-1.4,0.7-2.4,0.7C205.4,46.1,204.1,45.1,204.1,43.3z"/>
<path class="st33" d="M214.2,46v-8h-2.6v-1.1h6.5v1.1h-2.6v8H214.2z"/>
<path class="st33" d="M219.2,46v-9.1h1.3l2.7,4.9l2.7-4.9h1.3V46h-1.4v-6.4l-2.2,3.9h-0.9l-2.2-3.9V46H219.2z"/>
<path class="st33" d="M229.2,46v-9.1h5.4v1.1h-4v2.8h3.7V42h-3.7v2.9h4.1V46H229.2z"/>
<path class="st33" d="M236.2,46v-9.1h1.4l4,6.5v-6.5h1.4V46h-1.2l-4.1-6.7V46H236.2z"/>
<path class="st33" d="M246.6,46v-8h-2.6v-1.1h6.5v1.1H248v8H246.6z"/>
<g>
	<path class="st33" d="M107,4.9v41.3H95.6V20.6l-8.4,18.5H76l-9.1-18.5v25.6H55.6V4.9h14.5l11.6,23.6L92.5,4.9H107z"/>
	<path class="st33" d="M154.4,13.8v4.3c0,3-1.5,5.7-3.9,7.4c2.4,1.7,3.9,4.3,3.9,7.4v4.3c0,4.8-4,9-9,9h-31.6V4.9h31.6
		C150.2,4.9,154.4,8.8,154.4,13.8z M143.1,17.7c0-1.6-0.7-3.3-2.5-3.3h-15.4V21h15.4c1.4,0,2.5-1.2,2.5-2.6V17.7z M143.1,32.5
		c0-1.4-1.1-2.5-2.5-2.5h-15.4v6.6h15.4c1.4,0,2.5-1.1,2.5-2.5V32.5z"/>
	<path class="st33" d="M171.6,4.9v41.3h-11.3V4.9H171.6z"/>
</g>
</svg>
