<?xml version="1.0" encoding="utf-8"?>
<!-- Generator: Adobe Illustrator 21.1.0, SVG Export Plug-In . SVG Version: 6.00 Build 0)  -->
<svg version="1.1" id="logos" xmlns="http://www.w3.org/2000/svg" xmlns:xlink="http://www.w3.org/1999/xlink" x="0px" y="0px"
	 viewBox="0 0 270.5 50.7" style="enable-background:new 0 0 270.5 50.7;" xml:space="preserve">
<style type="text/css">
	.st0{display:none;}
	.st1{display:inline;fill:#FFFFFF;}
	.st2{display:inline;}
	.st3{fill:url(#SVGID_1_);}
	.st4{fill:url(#SVGID_2_);}
	.st5{fill:url(#SVGID_3_);}
	.st6{clip-path:url(#SVGID_5_);fill:url(#SVGID_6_);}
	.st7{clip-path:url(#SVGID_8_);fill:url(#SVGID_9_);}
	.st8{clip-path:url(#SVGID_11_);}
	.st9{fill:url(#SVGID_12_);}
	.st10{clip-path:url(#SVGID_14_);}
	.st11{clip-path:url(#SVGID_16_);}
	.st12{fill:#FFFFFF;}
	.st13{fill:#727272;}
	.st14{fill:#333333;}
	.st15{clip-path:url(#SVGID_18_);}
	.st16{clip-path:url(#SVGID_20_);fill:#808080;}
	.st17{fill:#B5B5B5;}
	.st18{clip-path:url(#SVGID_22_);fill:#FFFFFF;}
	.st19{clip-path:url(#SVGID_24_);fill:#FFFFFF;}
	.st20{clip-path:url(#SVGID_26_);fill:#FFFFFF;}
	.st21{clip-path:url(#SVGID_28_);fill:#FFFFFF;}
	.st22{clip-path:url(#SVGID_30_);fill:none;stroke:#FFFFFF;stroke-width:1.0481;stroke-miterlimit:10;}
	.st23{clip-path:url(#SVGID_32_);}
	.st24{enable-background:new    ;}
</style>
<rect y="-0.5" class="st0" width="270.5" height="51.2"/>
<g id="fxcm_logo" class="st0">
	<path class="st1" d="M22.2,35.4V17.6L3,39.7c4.5,6.4,12,10.6,20.4,10.6c0.1,0,0.1,0,0.2,0c10.1-0.1,18.8-6.2,22.7-14.9H23.6H22.2z"
		/>
	<path class="st1" d="M24.8,15.9v16.9l19.4-21.3c-4.4-6.7-12-11.1-20.6-11.2c-0.1,0-0.1,0-0.2,0C12.9,0.3,3.9,6.8,0.2,15.9H24.8z"/>
</g>
<g id="fxcm" class="st0">
	<path class="st1" d="M60.5,8.9c-2.1,0-3.3,0.9-4.2,2s-1.5,2.5-1.5,4.7c0,6.8,0,13.8,0,20.7h8L63,25.8h18v-6.6l-18.2,0.1
		c-0.1-1.6-0.1-3,1-3.5c1.4-0.7,4.1-0.5,6.7-0.5c3.5,0,7.5,0,10.6,0V8.9C76,8.9,65.6,8.9,60.5,8.9z"/>
	<polygon class="st1" points="113.3,8.9 105.5,8.9 99,18.3 92.4,8.8 84.2,8.8 93.6,22.3 84.2,36.2 92,36.3 98.9,26.3 105.7,36.3 
		113.8,36.3 104.1,22.3 	"/>
	<path class="st1" d="M137.6,8.9h-17.7c-2.9,0-5.3,2.4-5.3,5.4V31c0,3,2.4,5.4,5.3,5.4h17.7c3,0,5.3-2.4,5.3-5.4v-4h-6.6v0.3
		c0,1.6-1.2,2.9-2.7,2.9h-9c-1.5,0-2.7-1.3-2.7-2.9v-8.9c0-1.6,1.2-2.9,2.7-2.9h9c1.4,0,2.5,1.1,2.7,2.4h6.6v-3.6
		C142.9,11.3,140.5,8.9,137.6,8.9z"/>
	<path class="st1" d="M178.3,8.9h-5.5h-20.3c-3.1,0-5.7,3.4-5.7,7.5v19.9h7.8v-5.6l0,0V18.5c0-1.8,1.7-3.3,3.9-3.3h2.1
		c0.3,0,0.7,0,1,0.1v15.4l0,0v5.6h7.7v-21c0.3-0.1,0.7-0.1,1-0.1h2.1c0.1,0,0.2,0,0.3,0c1.9,0.2,3.5,1.6,3.5,3.3v17.8h7.7V16.4
		C183.9,12.2,181.4,8.9,178.3,8.9z"/>
</g>
<g id="A_leucadia_company" class="st0">
	<path class="st1" d="M59,48.6h-2.5L56,50.3h-1l2.4-6.6h0.8l2.3,6.6h-0.9L59,48.6z M56.8,47.8h2l-1-2.8l0,0L56.8,47.8z"/>
	<path class="st1" d="M68.5,49.6h3.2v0.7h-4.1v-6.6h0.9V49.6z"/>
	<path class="st1" d="M78.2,47.2h-2.7v2.4h3.2v0.7h-4.1v-6.6h4v0.7h-3.1v2.1h2.7V47.2z"/>
	<path class="st1" d="M86.4,43.7v4.4c0,0.7-0.2,1.3-0.7,1.7s-1.1,0.6-1.8,0.6c-0.7,0-1.3-0.2-1.8-0.6s-0.7-1-0.7-1.7v-4.4h0.9v4.4
		c0,0.5,0.1,0.9,0.4,1.2s0.7,0.4,1.1,0.4c0.5,0,0.9-0.1,1.2-0.4s0.5-0.7,0.5-1.2v-4.4H86.4z"/>
	<path class="st1" d="M94.5,48.2L94.5,48.2c0,0.6-0.2,1.2-0.6,1.6c-0.4,0.4-1,0.6-1.8,0.6c-0.7,0-1.4-0.3-1.8-0.8
		c-0.5-0.5-0.7-1.2-0.7-2v-1.2c0-0.8,0.2-1.5,0.7-2s1.1-0.8,1.8-0.8c0.7,0,1.3,0.2,1.8,0.6c0.4,0.4,0.7,0.9,0.6,1.6l0,0h-0.9
		c0-0.5-0.1-0.8-0.4-1.1s-0.7-0.4-1.1-0.4c-0.5,0-0.9,0.2-1.2,0.6c-0.3,0.4-0.4,0.9-0.4,1.5v1.2c0,0.6,0.1,1.1,0.4,1.5
		s0.7,0.6,1.2,0.6s0.9-0.1,1.1-0.4c0.3-0.3,0.4-0.6,0.4-1.1C93.6,48.2,94.5,48.2,94.5,48.2z"/>
	<path class="st1" d="M100.9,48.6h-2.5l-0.6,1.7h-0.9l2.4-6.6h0.8l2.3,6.6h-0.9L100.9,48.6z M98.7,47.8h2l-1-2.8l0,0L98.7,47.8z"/>
	<path class="st1" d="M105.3,50.3v-6.6h2.1c0.9,0,1.6,0.3,2.1,0.8s0.8,1.2,0.8,2.1v0.9c0,0.8-0.3,1.5-0.8,2.1
		c-0.5,0.5-1.2,0.8-2.1,0.8L105.3,50.3L105.3,50.3z M106.2,44.4v5.2h1.2c0.6,0,1.1-0.2,1.4-0.6c0.4-0.4,0.5-0.9,0.5-1.5v-0.9
		c0-0.6-0.2-1.1-0.5-1.5c-0.4-0.4-0.8-0.6-1.4-0.6h-1.2V44.4z"/>
	<path class="st1" d="M114.4,50.3h-0.9v-6.6h0.9V50.3z"/>
	<path class="st1" d="M121.5,48.6H119l-0.6,1.7h-0.9l2.4-6.6h0.8l2.3,6.6h-1L121.5,48.6z M119.2,47.8h2l-1-2.8l0,0L119.2,47.8z"/>
	<path class="st1" d="M134.7,48.2L134.7,48.2c0,0.6-0.2,1.2-0.6,1.6c-0.4,0.4-1,0.6-1.8,0.6c-0.7,0-1.4-0.3-1.8-0.8
		c-0.5-0.5-0.7-1.2-0.7-2v-1.2c0-0.8,0.2-1.5,0.7-2s1.1-0.8,1.8-0.8s1.3,0.2,1.8,0.6c0.4,0.4,0.7,0.9,0.6,1.6l0,0h-0.9
		c0-0.5-0.1-0.8-0.4-1.1c-0.3-0.3-0.7-0.4-1.1-0.4c-0.5,0-0.9,0.2-1.2,0.6s-0.4,0.9-0.4,1.5v1.2c0,0.6,0.1,1.1,0.4,1.5
		c0.3,0.4,0.7,0.6,1.2,0.6s0.9-0.1,1.1-0.4c0.3-0.3,0.4-0.6,0.4-1.1C133.8,48.2,134.7,48.2,134.7,48.2z"/>
	<path class="st1" d="M142.8,47.6c0,0.8-0.2,1.5-0.7,2s-1.1,0.8-1.9,0.8c-0.8,0-1.4-0.3-1.9-0.8s-0.7-1.2-0.7-2v-1.2
		c0-0.8,0.2-1.5,0.7-2s1.1-0.8,1.9-0.8c0.8,0,1.4,0.3,1.9,0.8s0.7,1.2,0.7,2V47.6z M141.9,46.4c0-0.6-0.2-1.1-0.5-1.5
		s-0.8-0.6-1.3-0.6s-0.9,0.2-1.2,0.6c-0.3,0.4-0.5,0.9-0.5,1.5v1.2c0,0.6,0.2,1.1,0.5,1.5s0.7,0.6,1.2,0.6c0.6,0,1-0.2,1.3-0.6
		c0.3-0.4,0.5-0.9,0.5-1.5V46.4z"/>
	<path class="st1" d="M149.3,49L149.3,49l2.1-5.4h1.1v6.6h-0.9v-4.9l0,0l-2,4.9H149l-2.1-5.1l0,0v5.1H146v-6.6h1.2L149.3,49z"/>
	<path class="st1" d="M156.8,47.6v2.6h-0.9v-6.6h2.5c0.7,0,1.2,0.2,1.6,0.5c0.4,0.4,0.6,0.8,0.6,1.4c0,0.6-0.2,1.1-0.6,1.4
		c-0.4,0.4-0.9,0.5-1.6,0.5h-1.6V47.6z M156.8,46.9h1.6c0.4,0,0.8-0.1,1-0.4c0.2-0.2,0.3-0.5,0.3-0.9s-0.1-0.7-0.3-0.9
		s-0.6-0.4-1-0.4h-1.6V46.9z"/>
	<path class="st1" d="M166.5,48.6H164l-0.6,1.7h-0.9l2.4-6.6h0.8l2.3,6.6h-0.9L166.5,48.6z M164.3,47.8h2l-1-2.8l0,0L164.3,47.8z"/>
	<path class="st1" d="M175.8,50.3H175l-3.2-5l0,0v5h-0.9v-6.6h0.9l3.2,5l0,0v-5h0.9L175.8,50.3L175.8,50.3z"/>
	<path class="st1" d="M181.3,47l1.7-3.3h1l-2.3,4.3v2.3h-0.9v-2.4l-2.3-4.2h1L181.3,47z"/>
</g>
<g id="_x32_0" class="st0">
	<g class="st2">
		
			<linearGradient id="SVGID_1_" gradientUnits="userSpaceOnUse" x1="205.6517" y1="1063.2397" x2="233.8459" y2="1022.9247" gradientTransform="matrix(1 0 0 1 0 -1029.0699)">
			<stop  offset="0" style="stop-color:#B7853C"/>
			<stop  offset="0.4666" style="stop-color:#F3E180"/>
			<stop  offset="0.5348" style="stop-color:#FBFFFF"/>
			<stop  offset="0.5864" style="stop-color:#FFE57F"/>
			<stop  offset="1" style="stop-color:#986E34"/>
		</linearGradient>
		<path class="st3" d="M211.1,31.7l10.2-13.9c0.9-1.2,1.7-2.6,2.2-3.9c0.5-1.4,0.8-2.7,0.8-3.9l0,0c0-2.9-0.9-5.2-2.6-6.9
			c-1.7-1.6-4.2-2.4-7.4-2.4c-2.8,0-5.1,0.8-6.9,2.5c-0.8,0.8-1.5,1.7-2,2.7c-0.7,1.3-1.1,2.7-1.3,4.4l0,0h5.1l0,0
			c0.2-1.6,0.7-2.8,1.6-3.7c0.9-0.9,2.1-1.3,3.5-1.3c1.5,0,2.7,0.4,3.5,1.2c0.3,0.3,0.5,0.6,0.7,0.9l0,0c0.4,0.7,0.5,1.5,0.5,2.4
			v0.1c0,0.9-0.2,1.8-0.6,2.8c-0.4,1-1,2-1.7,2.9L204.4,32v3.3c0,0.6,0.5,1,1,1h18.9v-4.7h-13.2L211.1,31.7L211.1,31.7z"/>
		
			<linearGradient id="SVGID_2_" gradientUnits="userSpaceOnUse" x1="207.9772" y1="1063.12" x2="231.8086" y2="1063.12" gradientTransform="matrix(1 0 0 1 0 -1029.0699)">
			<stop  offset="0" style="stop-color:#765326"/>
			<stop  offset="0.4147" style="stop-color:#C59C68"/>
			<stop  offset="0.4763" style="stop-color:#CEAC75"/>
			<stop  offset="0.627" style="stop-color:#E1CD91"/>
			<stop  offset="0.7091" style="stop-color:#E8DA9B"/>
			<stop  offset="0.8358" style="stop-color:#C59C68"/>
			<stop  offset="1" style="stop-color:#8C6A3A"/>
		</linearGradient>
		<polygon class="st4" points="224.5,31.7 224.5,36.4 207.7,36.4 211.1,31.7 		"/>
		
			<linearGradient id="SVGID_3_" gradientUnits="userSpaceOnUse" x1="199.2513" y1="1048.5187" x2="216.5714" y2="1031.1986" gradientTransform="matrix(1 0 0 1 0 -1029.0699)">
			<stop  offset="0" style="stop-color:#8C6A3A"/>
			<stop  offset="0.1642" style="stop-color:#C59C68"/>
			<stop  offset="0.2909" style="stop-color:#E8DA9B"/>
			<stop  offset="0.373" style="stop-color:#E1CD91"/>
			<stop  offset="0.5237" style="stop-color:#CEAC75"/>
			<stop  offset="0.5853" style="stop-color:#C59C68"/>
			<stop  offset="0.7762" style="stop-color:#765326"/>
		</linearGradient>
		<path class="st5" d="M218.6,7.4c-0.2-0.3-0.4-0.6-0.7-0.9c-0.8-0.8-2-1.2-3.5-1.2c-1.4,0-2.6,0.4-3.5,1.3s-1.4,2.1-1.6,3.7l0,0
			h-5.1l0,0c0.2-1.7,0.7-3.2,1.3-4.4C209.9,3.7,216.9,3,218.6,7.4z"/>
	</g>
	<g class="st2">
		<g>
			<g>
				<defs>
					<polygon id="SVGID_4_" points="225.1,-0.5 225.1,37.3 238.7,37.3 238.7,23.3 247.1,23.3 247.1,-0.5 					"/>
				</defs>
				<clipPath id="SVGID_5_">
					<use xlink:href="#SVGID_4_"  style="overflow:visible;"/>
				</clipPath>
				
					<linearGradient id="SVGID_6_" gradientUnits="userSpaceOnUse" x1="219.9419" y1="1070.6342" x2="246.3841" y2="1032.0162" gradientTransform="matrix(1 0 0 1 0 -1029.0699)">
					<stop  offset="0" style="stop-color:#B7853C"/>
					<stop  offset="0.4393" style="stop-color:#F3E180"/>
					<stop  offset="0.5045" style="stop-color:#FBFFFF"/>
					<stop  offset="0.5742" style="stop-color:#E6D175"/>
					<stop  offset="0.8955" style="stop-color:#AB8644"/>
					<stop  offset="0.9197" style="stop-color:#A78040"/>
					<stop  offset="1" style="stop-color:#986E34"/>
				</linearGradient>
				<path class="st6" d="M243.1,3.1c-1.7-1.8-4.2-2.7-7.5-2.7s-5.8,0.9-7.5,2.7s-2.5,4.2-2.5,7.4v16.1c0,3,0.8,5.4,2.4,7.2
					c0,0.1,0.1,0.1,0.2,0.2c1.7,1.8,4.2,2.7,7.6,2.7c3.3,0,5.8-0.9,7.5-2.7s2.5-4.2,2.5-7.4V10.4C245.6,7.3,244.7,4.8,243.1,3.1z
					 M240.6,27.3c-0.1,1.3-0.5,2.4-1.2,3.2c-0.5,0.6-1.3,1.1-2.3,1.3c-0.5,0.1-1,0.2-1.6,0.2c-1.8,0-3.1-0.5-3.9-1.4
					c-0.8-0.9-1.2-2.3-1.2-3.9V10.4c0-1.7,0.4-3,1.2-3.9s2.1-1.4,3.9-1.4c0.3,0,0.6,0,0.8,0l0,0h0.1c0.1,0,0.3,0,0.4,0.1
					c0.7,0.1,1.3,0.3,1.7,0.6c0.3,0.2,0.6,0.4,0.8,0.6c0,0,0.1,0,0.1,0.1c0.8,0.9,1.2,2.2,1.2,3.9v16.1c0,0.2,0,0.4,0,0.6
					C240.6,27.2,240.6,27.2,240.6,27.3z"/>
			</g>
		</g>
		<g>
			<g>
				<defs>
					<polygon id="SVGID_7_" points="225.1,-0.5 225.1,37.3 238.7,37.3 238.7,23.3 247.1,23.3 247.1,-0.5 					"/>
				</defs>
				<clipPath id="SVGID_8_">
					<use xlink:href="#SVGID_7_"  style="overflow:visible;"/>
				</clipPath>
				
					<linearGradient id="SVGID_9_" gradientUnits="userSpaceOnUse" x1="233.3204" y1="1070.55" x2="245.1665" y2="1033.7362" gradientTransform="matrix(1 0 0 1 0 -1029.0699)">
					<stop  offset="0" style="stop-color:#8C6A3A"/>
					<stop  offset="0.2182" style="stop-color:#E8DA9B"/>
					<stop  offset="0.3206" style="stop-color:#E1CD91"/>
					<stop  offset="0.5084" style="stop-color:#CEAC75"/>
					<stop  offset="0.5853" style="stop-color:#C59C68"/>
					<stop  offset="0.7762" style="stop-color:#765326"/>
				</linearGradient>
				<path class="st7" d="M245.6,18v8.5c0,3.1-0.8,5.6-2.5,7.4c-1.7,1.8-4.2,2.7-7.5,2.7c-3.4,0-5.9-0.9-7.6-2.7
					c-0.1-0.1-0.1-0.1-0.2-0.2c2.3,0,6.4-0.4,9.3-2c1-0.2,1.8-0.6,2.3-1.3c0.7-0.8,1.1-1.9,1.2-3.2v-0.1c0.1-0.4,0.1-0.7,0.1-1.1
					c0-1.1,0-2.2-0.1-3.2V10.4c0-1.7-0.4-3-1.2-3.9c0,0,0,0-0.1-0.1c-0.2-0.3-0.5-0.5-0.8-0.6c-0.5-0.3-1.1-0.5-1.7-0.6
					C241.4,5.8,244.3,8,245.6,18z"/>
			</g>
		</g>
		<g>
			<g>
				<defs>
					<polygon id="SVGID_10_" points="225.1,-0.5 225.1,37.3 238.7,37.3 238.7,23.3 247.1,23.3 247.1,-0.5 					"/>
				</defs>
				<clipPath id="SVGID_11_">
					<use xlink:href="#SVGID_10_"  style="overflow:visible;"/>
				</clipPath>
				<g class="st8">
					
						<linearGradient id="SVGID_12_" gradientUnits="userSpaceOnUse" x1="245.8172" y1="1030.1685" x2="239.3945" y2="1038.1641" gradientTransform="matrix(1 0 0 1 0 -1029.0699)">
						<stop  offset="0" style="stop-color:#CCE0F4;stop-opacity:0"/>
						<stop  offset="0.2823" style="stop-color:#D5E6F6;stop-opacity:0.2823"/>
						<stop  offset="0.7501" style="stop-color:#EFF5FB;stop-opacity:0.7501"/>
						<stop  offset="1" style="stop-color:#FFFFFF"/>
					</linearGradient>
					<path class="st9" d="M243.1,3.1c-1.7-1.8-4.2-2.7-7.5-2.7s-5.8,0.9-7.5,2.7s-2.5,4.2-2.5,7.4v16.1c0,3,0.8,5.4,2.4,7.2
						c2.3,0,6.4-0.4,9.3-2c-0.5,0.1-1,0.2-1.6,0.2c-1.8,0-3.1-0.5-3.9-1.4c-0.8-0.9-1.2-2.3-1.2-3.9V10.4c0-1.7,0.4-3,1.2-3.9
						s2.1-1.4,3.9-1.4c0.3,0,0.6,0,0.8,0l0,0h0.1c0.1,0,0.3,0,0.4,0.1c4.6,0.6,7.5,2.8,8.7,12.8v-7.6C245.6,7.3,244.7,4.8,243.1,3.1
						z"/>
				</g>
			</g>
		</g>
	</g>
</g>
<g id="years" class="st0">
	<path class="st1" d="M243.6,31.7L243.6,31.7l1.3-3.7h1.6l-2.2,5.4v3h-1.5v-3l-2.1-5.4h1.6L243.6,31.7z"/>
	<path class="st1" d="M251,32.8h-2.3v2.1h2.7v1.5h-4.2V28h4.2v1.5h-2.7v1.8h2.3V32.8z"/>
	<path class="st1" d="M256.2,34.8h-1.9l-0.4,1.6h-1.6l2.1-8.4h0.8l0,0l0,0h0.8l2.1,8.4h-1.6L256.2,34.8z M254.6,33.3h1.2l-0.6-2.6
		l0,0L254.6,33.3z"/>
	<path class="st1" d="M260.6,33.2v3.2h-1.5V28h2.2c0.7,0,1.3,0.2,1.8,0.7s0.7,1.1,0.7,1.8c0,0.4-0.1,0.8-0.3,1.1
		c-0.2,0.3-0.4,0.6-0.8,0.8c0.4,0.1,0.7,0.4,0.8,0.7c0.2,0.3,0.3,0.8,0.3,1.3V35c0,0.2,0,0.5,0.1,0.8s0.1,0.5,0.3,0.6v0.1h-1.5
		c-0.1-0.1-0.2-0.3-0.2-0.6s-0.1-0.6-0.1-0.8v-0.5c0-0.4-0.1-0.7-0.2-0.9c-0.2-0.2-0.4-0.3-0.7-0.3h-0.9L260.6,33.2L260.6,33.2z
		 M260.6,31.7h0.8c0.3,0,0.5-0.1,0.7-0.3c0.2-0.2,0.2-0.4,0.2-0.8c0-0.3-0.1-0.6-0.2-0.8c-0.2-0.2-0.4-0.3-0.7-0.3h-0.7L260.6,31.7
		L260.6,31.7z"/>
	<path class="st1" d="M268.8,34.2c0-0.3-0.1-0.5-0.2-0.7c-0.2-0.2-0.4-0.3-0.8-0.5c-0.8-0.3-1.4-0.7-1.8-1.1s-0.6-0.9-0.6-1.7
		c0-0.7,0.2-1.3,0.7-1.7c0.5-0.4,1-0.7,1.7-0.7s1.3,0.2,1.8,0.7s0.7,1.1,0.6,1.9l0,0h-1.4c0-0.4-0.1-0.7-0.2-0.9
		c-0.2-0.2-0.4-0.3-0.7-0.3c-0.3,0-0.5,0.1-0.6,0.3s-0.2,0.4-0.2,0.6s0.1,0.4,0.2,0.6c0.2,0.1,0.5,0.3,0.9,0.6
		c0.7,0.3,1.3,0.6,1.7,1.1c0.4,0.4,0.6,1,0.6,1.7s-0.2,1.3-0.7,1.7s-1,0.6-1.8,0.6c-0.7,0-1.3-0.2-1.8-0.7s-0.8-1.2-0.7-2.1l0,0h1.5
		c0,0.5,0.1,0.8,0.3,1c0.2,0.2,0.5,0.3,0.8,0.3s0.5-0.1,0.7-0.2C268.7,34.6,268.8,34.4,268.8,34.2z"/>
</g>
<g id="of_trading" class="st0">
	<path class="st1" d="M211.1,45.8c0,1.2-0.3,2.3-1,3.1s-1.5,1.2-2.6,1.2s-1.9-0.4-2.6-1.2c-0.7-0.8-1-1.8-1-3.1V44
		c0-1.2,0.3-2.3,1-3.1s1.5-1.2,2.6-1.2s1.9,0.4,2.6,1.2c0.7,0.8,1,1.8,1,3.1V45.8z M209.1,44c0-0.7-0.1-1.3-0.4-1.8
		c-0.3-0.5-0.7-0.7-1.2-0.7s-0.9,0.2-1.2,0.7s-0.4,1.1-0.4,1.8v1.8c0,0.7,0.1,1.3,0.4,1.8c0.3,0.5,0.7,0.7,1.2,0.7s0.9-0.2,1.2-0.7
		s0.4-1.1,0.4-1.8V44z"/>
	<path class="st1" d="M217.3,45.9h-3.1V50h-2V39.9h5.7v1.8h-3.7v2.4h3.1V45.9z"/>
	<path class="st1" d="M227.3,41.7h-2.2V50h-2v-8.3h-2.2v-1.8h6.4V41.7z"/>
	<path class="st1" d="M230.3,46.1V50h-2V39.9h2.9c1,0,1.8,0.3,2.3,0.8c0.6,0.5,0.9,1.3,0.9,2.2c0,0.5-0.1,1-0.3,1.3s-0.6,0.7-1,0.9
		c0.5,0.2,0.9,0.5,1.1,0.9c0.2,0.4,0.3,0.9,0.3,1.5v0.6c0,0.3,0,0.6,0.1,0.9c0.1,0.3,0.2,0.6,0.3,0.7V50h-2
		c-0.2-0.1-0.3-0.4-0.3-0.8c0-0.4-0.1-0.7-0.1-1v-0.6c0-0.5-0.1-0.8-0.3-1.1s-0.5-0.4-0.9-0.4C231.3,46.1,230.3,46.1,230.3,46.1z
		 M230.3,44.3h1c0.4,0,0.7-0.1,0.9-0.3s0.3-0.5,0.3-0.9s-0.1-0.7-0.3-1s-0.5-0.4-0.9-0.4h-1V44.3z"/>
	<path class="st1" d="M240.6,48h-2.5l-0.5,2h-2.1l2.8-10.1h1.1l0,0l0,0h1.1l2.8,10.1h-2.1L240.6,48z M238.5,46.2h1.6l-0.8-3.1l0,0
		L238.5,46.2z"/>
	<path class="st1" d="M244,50V39.9h3.1c1,0,1.8,0.4,2.5,1.2s1,1.8,1,3v1.8c0,1.2-0.3,2.2-1,3s-1.5,1.2-2.5,1.2H244V50z M246,41.7
		v6.5h1.1c0.4,0,0.8-0.2,1.1-0.7c0.3-0.4,0.4-1,0.4-1.7V44c0-0.7-0.1-1.2-0.4-1.7c-0.3-0.4-0.7-0.7-1.1-0.7H246V41.7z"/>
	<path class="st1" d="M253.6,50h-2V39.9h2V50z"/>
	<path class="st1" d="M262.1,50h-2l-3.1-6.4l0,0V50h-2V39.9h2l3.1,6.4l0,0V40h2V50z"/>
	<path class="st1" d="M270.2,48.6c-0.3,0.4-0.7,0.8-1.2,1.1s-1.2,0.5-2.1,0.5c-1,0-1.9-0.4-2.6-1.2s-1-1.8-1-3v-2.1
		c0-1.2,0.3-2.2,1-3c0.6-0.8,1.5-1.2,2.5-1.2c1.1,0,1.9,0.3,2.4,0.9c0.6,0.6,0.8,1.4,0.8,2.4l0,0h-1.8c0-0.5-0.1-0.9-0.3-1.1
		c-0.2-0.2-0.6-0.4-1-0.4c-0.5,0-0.8,0.2-1.1,0.6c-0.3,0.4-0.4,1-0.4,1.7V46c0,0.7,0.1,1.3,0.4,1.7s0.7,0.6,1.2,0.6
		c0.4,0,0.6,0,0.9-0.1c0.2-0.1,0.4-0.2,0.5-0.3v-1.8h-1.5v-1.6h3.5v4.1C270.4,48.6,270.2,48.6,270.2,48.6z"/>
</g>
<g>
	<g>
		<g>
			<defs>
				<circle id="SVGID_13_" cx="25.6" cy="25.1" r="24.5"/>
			</defs>
			<clipPath id="SVGID_14_">
				<use xlink:href="#SVGID_13_"  style="overflow:visible;"/>
			</clipPath>
			<g class="st10">
				<g>
					<g>
						<g>
							<defs>
								<path id="SVGID_15_" d="M16.3,25h18.4l12.2,12.2c-4.2,7.4-12.2,12.4-21.4,12.4C12,49.5,1,38.5,1,25c0-4.5,1.2-8.6,3.1-12.2
									L16.3,25z"/>
							</defs>
							<clipPath id="SVGID_16_">
								<use xlink:href="#SVGID_15_"  style="overflow:visible;"/>
							</clipPath>
							<g class="st11">
								<rect x="-1.4" y="15" class="st12" width="51.7" height="36.2"/>
								<g>
									<rect x="2.5" y="35.6" class="st13" width="45.1" height="2.8"/>
									<rect x="3" y="29.8" class="st13" width="45.1" height="2.8"/>
									<rect x="3.2" y="24.2" class="st13" width="45.1" height="2.8"/>
									<rect x="2.5" y="41.2" class="st13" width="45.1" height="2.8"/>
									<rect x="2.8" y="47" class="st13" width="45.1" height="2.8"/>
								</g>
								<g>
									<rect x="-2.7" y="8.2" class="st14" width="23.1" height="24.4"/>
									<polygon class="st12" points="11.6,30.1 12.4,30.1 12.6,29.4 12.9,30.1 13.7,30.1 13,30.7 13.3,31.5 12.6,31 11.9,31.5 
										12.2,30.7 									"/>
									<polygon class="st12" points="7.8,30.1 8.6,30.1 8.8,29.4 9.1,30.1 10,30.1 9.2,30.7 9.6,31.5 8.8,31 8.2,31.5 8.5,30.7 
																			"/>
									<polygon class="st12" points="4,30.1 4.8,30.1 5.2,29.4 5.4,30.1 6.2,30.1 5.6,30.7 5.8,31.5 5.2,31 4.4,31.5 4.7,30.7 
																			"/>
									<polygon class="st12" points="0.3,30.1 1.2,30.1 1.4,29.4 1.7,30.1 2.4,30.1 1.8,30.7 2.1,31.5 1.4,31 0.7,31.5 1,30.7 
																			"/>
									<polygon class="st12" points="2.2,27.5 3.1,27.5 3.3,26.8 3.6,27.5 4.3,27.5 3.7,28 4,28.9 3.3,28.3 2.5,28.9 2.9,28 
																			"/>
									<polygon class="st12" points="4,24.9 4.8,24.9 5.2,24.2 5.4,24.9 6.2,24.9 5.6,25.4 5.8,26.3 5.2,25.7 4.4,26.3 4.7,25.4 
																			"/>
									<polygon class="st12" points="7.8,24.9 8.6,24.9 8.8,24.2 9.1,24.9 10,24.9 9.2,25.4 9.6,26.3 8.8,25.7 8.2,26.3 8.5,25.4 
																			"/>
									<polygon class="st12" points="11.6,24.9 12.4,24.9 12.6,24.2 12.9,24.9 13.7,24.9 13,25.4 13.3,26.3 12.6,25.7 11.9,26.3 
										12.2,25.4 									"/>
									<polygon class="st12" points="15.2,24.9 16.1,24.9 16.4,24.2 16.6,24.9 17.4,24.9 16.8,25.4 17,26.3 16.4,25.7 15.6,26.3 
										16,25.4 									"/>
									<polygon class="st12" points="0.3,24.9 1.2,24.9 1.4,24.2 1.7,24.9 2.4,24.9 1.8,25.4 2.1,26.3 1.4,25.7 0.7,26.3 1,25.4 
																			"/>
									<polygon class="st12" points="4,19.7 4.8,19.7 5.2,18.8 5.4,19.7 6.2,19.7 5.6,20.1 5.8,20.9 5.2,20.4 4.4,20.9 4.7,20.1 
																			"/>
									<polygon class="st12" points="7.8,19.7 8.6,19.7 8.8,18.8 9.1,19.7 10,19.7 9.2,20.1 9.6,20.9 8.8,20.4 8.2,20.9 8.5,20.1 
																			"/>
									<polygon class="st12" points="11.6,19.7 12.4,19.7 12.6,18.8 12.9,19.7 13.7,19.7 13,20.1 13.3,20.9 12.6,20.4 11.9,20.9 
										12.2,20.1 									"/>
									<polygon class="st12" points="0.3,19.7 1.2,19.7 1.4,18.8 1.7,19.7 2.4,19.7 1.8,20.1 2.1,20.9 1.4,20.4 0.7,20.9 1,20.1 
																			"/>
									<polygon class="st12" points="2.2,22.2 3.1,22.2 3.3,21.4 3.6,22.2 4.3,22.2 3.7,22.7 4,23.5 3.3,23 2.5,23.5 2.9,22.7 
																			"/>
									<polygon class="st12" points="5.9,22.2 6.7,22.2 7,21.4 7.3,22.2 8.1,22.2 7.5,22.7 7.7,23.5 7,23 6.3,23.5 6.6,22.7 
																			"/>
									<polygon class="st12" points="2.2,16.9 3.1,16.9 3.3,16.1 3.6,16.9 4.3,16.9 3.7,17.4 4,18.3 3.3,17.8 2.5,18.3 2.9,17.4 
																			"/>
									<polygon class="st12" points="5.9,16.9 6.7,16.9 7,16.1 7.3,16.9 8.1,16.9 7.5,17.4 7.7,18.3 7,17.8 6.3,18.3 6.6,17.4 
																			"/>
									<polygon class="st12" points="4,14.2 4.8,14.2 5.2,13.5 5.4,14.2 6.2,14.2 5.6,14.7 5.8,15.6 5.2,15 4.4,15.6 4.7,14.7 
																			"/>
									<polygon class="st12" points="9.7,22.2 10.5,22.2 10.7,21.4 11,22.2 11.9,22.2 11.1,22.7 11.5,23.5 10.7,23 10.1,23.5 
										10.4,22.7 									"/>
									<polygon class="st12" points="13.3,22.2 14.2,22.2 14.5,21.4 14.7,22.2 15.5,22.2 14.9,22.7 15.1,23.5 14.5,23 13.8,23.5 
										14.1,22.7 									"/>
									<polygon class="st12" points="15.3,30.1 16.1,30.1 16.4,29.4 16.6,30.1 17.4,30.1 16.8,30.7 17,31.5 16.4,31 15.6,31.5 
										16,30.7 									"/>
									<polygon class="st12" points="17.1,27.5 17.9,27.5 18.2,26.8 18.5,27.5 19.3,27.5 18.6,28 18.9,28.9 18.2,28.3 17.5,28.9 
										17.8,28 									"/>
									<polygon class="st12" points="13.3,27.5 14.2,27.5 14.5,26.8 14.7,27.5 15.5,27.5 14.9,28 15.1,28.9 14.5,28.3 13.8,28.9 
										14.1,28 									"/>
									<polygon class="st12" points="9.7,27.5 10.5,27.5 10.7,26.8 11,27.5 11.9,27.5 11.1,28 11.5,28.9 10.7,28.3 10.1,28.9 
										10.4,28 									"/>
									<polygon class="st12" points="5.9,27.5 6.7,27.5 7,26.8 7.3,27.5 8.1,27.5 7.5,28 7.7,28.9 7,28.3 6.3,28.9 6.6,28 
																			"/>
								</g>
							</g>
						</g>
						<g>
							<g>
								<g>
									<defs>
										<circle id="SVGID_17_" cx="25.6" cy="25.1" r="24.5"/>
									</defs>
									<clipPath id="SVGID_18_">
										<use xlink:href="#SVGID_17_"  style="overflow:visible;"/>
									</clipPath>
									<g class="st15">
										<g id="logo">
											<g>
												<g>
													<g>
														<defs>
															<path id="SVGID_19_" d="M34.7,25H16.3L4.1,12.8C8.3,5.4,16.3,0.5,25.5,0.5C39,0.5,50,11.5,50,25
																c0,4.4-1.2,8.6-3.2,12.2C46.9,37.2,34.7,25,34.7,25z"/>
														</defs>
														<clipPath id="SVGID_20_">
															<use xlink:href="#SVGID_19_"  style="overflow:visible;"/>
														</clipPath>
														<rect x="-2.2" y="-5.7" class="st16" width="68.3" height="48.7"/>
													</g>
													<polygon class="st17" points="12.9,8.5 14.3,4.3 15.6,8.5 20.1,8.5 16.5,11.2 17.9,15.5 14.3,12.8 10.6,15.5 12,11.2 
														8.4,8.5 													"/>
													<polygon class="st17" points="28.3,14 28.6,12.6 29.2,14 30.6,13.9 29.5,14.7 30,16.1 28.8,15.2 27.7,16.2 28,14.8 
														26.9,14.1 													"/>
													<polygon class="st17" points="24.4,18 25.4,16.9 25.3,18.3 26.5,18.8 25.2,19.1 25.2,20.6 24.3,19.4 23,19.8 
														23.9,18.7 23.2,17.4 													"/>
													<polygon class="st17" points="29,7.7 30.2,7.1 29.6,8.3 30.5,9.4 29.2,9.1 28.5,10.4 28.3,9 26.9,8.8 28.1,8.1 
														27.9,6.8 													"/>
													<polygon class="st17" points="24.4,3.5 25.4,2.5 25.3,3.9 26.6,4.5 25.2,4.8 25.2,6.1 24.4,5 23,5.3 23.9,4.2 23.2,3 
																											"/>
												</g>
												<g>
													<g>
														<g>
															<defs>
																<circle id="SVGID_21_" cx="25.6" cy="25.1" r="24.5"/>
															</defs>
															<clipPath id="SVGID_22_">
																<use xlink:href="#SVGID_21_"  style="overflow:visible;"/>
															</clipPath>
															<circle class="st18" cx="4.1" cy="12.8" r="3.4"/>
														</g>
														<g>
															<g>
																<g>
																	<defs>
																		<circle id="SVGID_23_" cx="25.6" cy="25.1" r="24.5"/>
																	</defs>
																	<clipPath id="SVGID_24_">
																		<use xlink:href="#SVGID_23_"  style="overflow:visible;"/>
																	</clipPath>
																	<circle class="st19" cx="16.3" cy="25" r="2.9"/>
																</g>
																<g>
																	<g>
																		<g>
																			<defs>
																				<circle id="SVGID_25_" cx="25.6" cy="25.1" r="24.5"/>
																			</defs>
																			<clipPath id="SVGID_26_">
																				<use xlink:href="#SVGID_25_"  style="overflow:visible;"/>
																			</clipPath>
																			<circle class="st20" cx="34.7" cy="25" r="3.4"/>
																		</g>
																		<g>
																			<g>
																				<g>
																					<defs>
																						<circle id="SVGID_27_" cx="25.6" cy="25.1" r="24.5"/>
																					</defs>
																					<clipPath id="SVGID_28_">
																						<use xlink:href="#SVGID_27_"  style="overflow:visible;"/>
																					</clipPath>
																					<circle class="st21" cx="46.9" cy="37.2" r="3.5"/>
																				</g>
																				<g>
																					<g>
																						<g>
																							<defs>
																								<circle id="SVGID_29_" cx="25.6" cy="25.1" r="24.5"/>
																							</defs>
																							<clipPath id="SVGID_30_">
																								<use xlink:href="#SVGID_29_"  style="overflow:visible;"/>
																							</clipPath>
																							<polyline class="st22" points="4.1,12.8 16.3,25 34.7,25 47,37.3 																							"/>
																						</g>
																					</g>
																					<g>
																						<g>
																							<defs>
																								<circle id="SVGID_31_" cx="25.6" cy="25.1" r="24.5"/>
																							</defs>
																							<clipPath id="SVGID_32_">
																								<use xlink:href="#SVGID_31_"  style="overflow:visible;"/>
																							</clipPath>
																							<g class="st23">
																								<path class="st12" d="M57,44.4v6.8h-1.6v-6.8H57z"/>
																								<path class="st12" d="M64.8,51.2h-1.6l-3-4.3v4.3h-1.6v-6.8h1.6l3,4.3v-4.3h1.6V51.2z"/>
																								<path class="st12" d="M69.3,45.5v5.8h-1.6v-5.8h-2.1v-1.2h5.9v1.2H69.3z"/>
																								<path class="st12" d="M73.8,47.2H77v1.2h-3.1v1.8h3.7v1.2h-5.2v-6.8h5.3v1.2H74L73.8,47.2L73.8,47.2z"/>
																								<path class="st12" d="M80.3,48.5v2.7h-1.6v-6.8h3.1c0.8,0,1.5,0.2,2,0.5c0.5,0.4,0.7,0.8,0.7,1.5
																									c0,0.4-0.1,0.8-0.4,1.2c-0.2,0.3-0.6,0.5-1,0.7l1.8,2.9h-1.8l-1.6-2.7C81.5,48.5,80.3,48.5,80.3,48.5z
																									 M81.8,47.3c0.4,0,0.6-0.1,0.8-0.2c0.2-0.2,0.3-0.4,0.3-0.7s-0.1-0.5-0.3-0.6c-0.2-0.2-0.5-0.2-0.8-0.2
																									h-1.5v1.9L81.8,47.3L81.8,47.3z"/>
																								<path class="st12" d="M92,51.2h-1.6l-3-4.3v4.3h-1.6v-6.8h1.6l3,4.3v-4.3H92V51.2z"/>
																								<path class="st12" d="M95,49.9l-0.5,1.4h-1.7l2.9-6.8H97l2.9,6.8h-1.7l-0.5-1.4H95z M96.4,46.2l-1,2.6h2
																									L96.4,46.2z"/>
																								<path class="st12" d="M103.2,45.5v5.8h-1.6v-5.8h-2.1v-1.2h5.9v1.2H103.2z"/>
																								<path class="st12" d="M107.8,44.4v6.8h-1.6v-6.8H107.8z"/>
																								<path class="st12" d="M109.1,47c0-1.8,1-2.7,3-2.7c0.9,0,1.7,0.2,2.2,0.6c0.5,0.4,0.8,1.2,0.8,2.1v1.6
																									c0,0.9-0.3,1.7-0.8,2.1c-0.5,0.4-1.3,0.6-2.2,0.6c-2,0-3-0.9-3-2.7V47z M113.6,48.6v-1.5
																									c0-0.6-0.1-1-0.3-1.3c-0.2-0.2-0.6-0.4-1-0.4c-0.5,0-0.8,0.1-1.2,0.4c-0.2,0.2-0.3,0.6-0.3,1.3v1.5
																									c0,0.5,0.1,0.9,0.3,1.3c0.2,0.2,0.6,0.4,1.2,0.4s0.8-0.1,1-0.4C113.4,49.5,113.6,49.1,113.6,48.6z"/>
																								<path class="st12" d="M122.7,51.2h-1.6l-3-4.3v4.3h-1.6v-6.8h1.6l3,4.3v-4.3h1.6V51.2z"/>
																								<path class="st12" d="M125.6,49.9l-0.5,1.4h-1.7l2.9-6.8h1.3l2.9,6.8h-1.7l-0.5-1.4H125.6z M126.9,46.2
																									l-1,2.6h2L126.9,46.2z"/>
																								<path class="st12" d="M132.9,44.4v5.8h3.7v1.2h-5.2v-6.8L132.9,44.4L132.9,44.4z"/>
																								<path class="st12" d="M140.3,47c0-1.8,1-2.7,3-2.7c0.9,0,1.7,0.2,2.2,0.6c0.5,0.4,0.8,0.9,0.8,1.7v0.1h-1.6
																									v-0.1c0-0.3-0.1-0.6-0.4-0.8c-0.2-0.2-0.6-0.3-1-0.3c-0.5,0-0.8,0.1-1.2,0.4c-0.2,0.2-0.3,0.6-0.3,1.3v1.5
																									c0,0.5,0.1,0.9,0.3,1.3c0.2,0.2,0.6,0.4,1.2,0.4c0.4,0,0.8-0.1,1-0.3s0.3-0.4,0.3-0.8V49h1.6v0.1
																									c0,0.7-0.3,1.3-0.8,1.7s-1.3,0.6-2.2,0.6c-2,0-3-0.9-3-2.7L140.3,47L140.3,47z"/>
																								<path class="st12" d="M147.6,47c0-1.8,1-2.7,3-2.7c0.9,0,1.7,0.2,2.2,0.6c0.5,0.4,0.8,1.2,0.8,2.1v1.6
																									c0,0.9-0.3,1.7-0.8,2.1c-0.5,0.4-1.3,0.6-2.2,0.6c-2,0-3-0.9-3-2.7V47z M152,48.6v-1.5c0-0.6-0.1-1-0.3-1.3
																									c-0.2-0.2-0.6-0.4-1-0.4c-0.5,0-0.8,0.1-1.2,0.4c-0.2,0.2-0.3,0.6-0.3,1.3v1.5c0,0.5,0.1,0.9,0.3,1.3
																									c0.2,0.2,0.6,0.4,1.2,0.4c0.5,0,0.8-0.1,1-0.4C151.9,49.5,152,49.1,152,48.6z"/>
																								<path class="st12" d="M162.3,51.2h-1.6v-4.1l-1.6,2.7h-1l-1.6-2.7v4.1h-1.6v-6.8h1.6l2.1,3.8l2.1-3.8h1.6
																									V51.2z"/>
																								<path class="st12" d="M169.5,46.5c0,0.6-0.2,1.2-0.7,1.6c-0.5,0.4-1.2,0.5-2,0.5h-1.6v2.6h-1.6v-6.8h3.1
																									c0.8,0,1.5,0.2,2,0.5C169.3,45.3,169.5,45.9,169.5,46.5z M167.9,46.5c0-0.3-0.1-0.6-0.3-0.7
																									c-0.2-0.2-0.5-0.3-0.9-0.3h-1.5v2h1.5c0.4,0,0.6-0.1,0.9-0.2C167.8,47.1,167.9,46.8,167.9,46.5z"/>
																								<path class="st12" d="M171.5,49.9l-0.5,1.4h-1.7l2.9-6.8h1.3l2.9,6.8h-1.7l-0.5-1.4H171.5z M172.9,46.2
																									l-1,2.6h2L172.9,46.2z"/>
																								<path class="st12" d="M183.5,51.2H182l-3-4.3v4.3h-1.6v-6.8h1.6l3,4.3v-4.3h1.6v6.8H183.5z"/>
																								<path class="st12" d="M188.2,51.2h-1.6v-2.8l-2.4-4.1h1.8l1.5,2.7l1.5-2.7h1.8l-2.4,4L188.2,51.2
																									L188.2,51.2z"/>
																							</g>
																						</g>
																					</g>
																				</g>
																				<text transform="matrix(1 0 0 1 71.5405 -26.5558)" style="font-family:'D-DIN-Bold'; font-size:12.5769px;">INTERNATIONAL COMPANY</text>
																				<g id="international" class="st24">
																					<path class="st12" d="M56.8,42.8v8.7h-1.6v-8.7H56.8z"/>
																					<path class="st12" d="M64.6,51.5H63L60,46v5.5h-1.6v-8.7H60l3,5.5v-5.5h1.6V51.5z"/>
																					<path class="st12" d="M69.2,44.3v7.2h-1.6v-7.2h-2.1v-1.5h5.9v1.5H69.2z"/>
																					<path class="st12" d="M73.7,46.4h3.1v1.5h-3.1V50h3.8v1.5h-5.3v-8.7h5.3v1.5h-3.8V46.4z"/>
																					<path class="st12" d="M80.1,47.9v3.6h-1.6v-8.7h3.1c0.8,0,1.5,0.2,2,0.7c0.5,0.4,0.7,1,0.7,1.9
																						c0,0.5-0.1,1-0.4,1.5c-0.2,0.4-0.6,0.7-1,0.8l1.8,3.8h-1.8l-1.6-3.6H80.1z M81.7,46.6c0.4,0,0.6-0.1,0.8-0.3
																						c0.2-0.2,0.3-0.5,0.3-0.8s-0.1-0.6-0.3-0.8c-0.2-0.2-0.5-0.3-0.8-0.3h-1.5v2.3C80.2,46.6,81.7,46.6,81.7,46.6z
																						"/>
																					<path class="st12" d="M91.9,51.5h-1.6l-3-5.5v5.5h-1.6v-8.7h1.6l3,5.5v-5.5h1.6V51.5z"/>
																					<path class="st12" d="M94.9,49.8l-0.5,1.7h-1.7l2.9-8.7h1.3l2.9,8.7h-1.7l-0.3-1.7H94.9z M96.3,45.1l-1,3.4
																						h2.1L96.3,45.1z"/>
																					<path class="st12" d="M103.1,44.3v7.2h-1.6v-7.2h-2.1v-1.5h5.9v1.5H103.1z"/>
																					<path class="st12" d="M107.7,42.8v8.7h-1.6v-8.7H107.7z"/>
																					<path class="st12" d="M109.1,46.2c0-2.3,1-3.5,3-3.5c0.9,0,1.7,0.3,2.2,0.8s0.8,1.5,0.8,2.6v2
																						c0,1.3-0.3,2.1-0.8,2.6s-1.3,0.8-2.2,0.8c-2,0-3-1.2-3-3.5V46.2z M113.5,48.2v-1.9c0-0.7-0.1-1.3-0.3-1.6
																						c-0.2-0.3-0.6-0.5-1-0.5c-0.5,0-0.8,0.2-1.2,0.5c-0.2,0.3-0.3,0.8-0.3,1.6v1.9c0,0.7,0.1,1.3,0.3,1.6
																						c0.2,0.3,0.6,0.4,1.2,0.4c0.5,0,0.8-0.2,1-0.5C113.4,49.3,113.5,48.8,113.5,48.2z"/>
																					<path class="st12" d="M122.7,51.5h-1.6l-3-5.5v5.5h-1.6v-8.7h1.6l3,5.5v-5.5h1.6V51.5z"/>
																					<path class="st12" d="M125.6,49.8l-0.5,1.7h-1.7l2.9-8.7h1.3l2.9,8.7h-1.7l-0.5-1.7H125.6z M127.1,45.1l-1,3.4
																						h2L127.1,45.1z"/>
																					<path class="st12" d="M133,42.8V50h3.7v1.5h-5.2v-8.7H133z"/>
																					<path class="st12" d="M140.4,46.2c0-2.3,1-3.5,3-3.5c0.9,0,1.7,0.2,2.2,0.7s0.8,1.3,0.8,2.1v0.1h-1.6l0,0
																						c0-0.4-0.1-0.8-0.4-1c-0.3-0.2-0.6-0.4-1-0.4c-0.5,0-0.8,0.2-1.2,0.5c-0.2,0.3-0.3,0.8-0.3,1.6v1.9
																						c0,0.7,0.1,1.3,0.3,1.6s0.6,0.5,1.2,0.5c0.4,0,0.8-0.1,1-0.4c0.2-0.2,0.3-0.6,0.3-1v-0.1h1.6v0.1
																						c0,0.9-0.3,1.7-0.8,2.1c-0.5,0.5-1.3,0.7-2.2,0.7c-2,0-3-1.2-3-3.5L140.4,46.2
																						C140.3,46.2,140.4,46.2,140.4,46.2z"/>
																					<path class="st12" d="M147.6,46.2c0-2.3,1-3.5,3-3.5c0.9,0,1.7,0.3,2.2,0.8s0.8,1.5,0.8,2.6v2
																						c0,1.3-0.3,2.1-0.8,2.6s-1.3,0.8-2.2,0.8c-2,0-3-1.2-3-3.5V46.2z M152.1,48.2v-1.9c0-0.7-0.1-1.3-0.3-1.6
																						s-0.6-0.5-1-0.5c-0.5,0-0.8,0.2-1.2,0.5c-0.2,0.3-0.3,0.8-0.3,1.6v1.9c0,0.7,0.1,1.3,0.3,1.6s0.6,0.4,1.2,0.4
																						c0.5,0,0.8-0.2,1-0.5C152,49.3,152.1,48.8,152.1,48.2z"/>
																					<path class="st12" d="M162.4,51.5h-1.6v-5.1l-1.6,3.5h-1l-1.6-3.5v5.1H155v-8.7h1.6l2.1,4.8l2.1-4.8h1.6
																						L162.4,51.5L162.4,51.5z"/>
																					<path class="st12" d="M169.7,45.5c0,0.8-0.2,1.5-0.7,1.9c-0.5,0.5-1.2,0.7-2,0.7h-1.6v3.2h-1.6v-8.7h3.1
																						c0.8,0,1.5,0.2,2,0.7C169.4,44.1,169.7,44.7,169.7,45.5z M168,45.5c0-0.4-0.1-0.7-0.3-0.9s-0.5-0.3-0.9-0.3
																						h-1.5v2.5h1.5c0.4,0,0.6-0.1,0.9-0.3C167.9,46.3,168,46,168,45.5z"/>
																					<path class="st12" d="M171.6,49.8l-0.5,1.7h-1.7l2.9-8.7h1.3l2.9,8.7H175l-0.5-1.7H171.6z M173.1,45.1l-1,3.4
																						h2L173.1,45.1z"/>
																					<path class="st12" d="M183.8,51.5h-1.6l-3-5.5v5.5h-1.6v-8.7h1.6l3,5.5v-5.5h1.6V51.5z"/>
																					<path class="st12" d="M188.4,51.5h-1.6v-3.6l-2.4-5.1h1.8l1.5,3.6l1.5-3.6h1.8l-2.4,5.1v3.6H188.4z"/>
																				</g>
																			</g>
																		</g>
																	</g>
																</g>
															</g>
														</g>
													</g>
												</g>
											</g>
										</g>
									</g>
								</g>
							</g>
						</g>
					</g>
				</g>
			</g>
		</g>
	</g>
</g>
<text transform="matrix(1 0 0 1 105.75 -65)" style="font-family:'LustraTextBold-Regular'; font-size:12px;">FXMANOR</text>
<g>
	<path class="st12" d="M75.4,25.6H62.3v10.5h-7.5V8.8h23.6v6.6H62.3v3.7h13.1V25.6z"/>
	<path class="st12" d="M90,22.5L79.8,8.8H88l6.1,8.2l6.1-8.2h8.2L98.2,22.5l10.2,13.7h-8.2l-6.1-8.2L88,36.2h-8.2L90,22.5z"/>
	<path class="st12" d="M145.3,8.8v27.4h-7.5V19.2l-5.5,12.2h-7.5l-6-12.3v17h-7.5V8.8h9.6l7.7,15.7l7.2-15.7H145.3z"/>
	<path class="st12" d="M170.7,36.2l-1.9-4.7h-11.6l-1.9,4.7h-7.6l11.6-27.4h7.5l11.6,27.4H170.7z M159.7,25.1h6.6l-3.3-8.2
		L159.7,25.1z"/>
	<path class="st12" d="M207.7,8.8v27.4h-9.2l-10.3-17.5v17.5h-7.5V8.8h9.2l10.3,17.5V8.8H207.7z"/>
	<path class="st12" d="M239.1,14.7v15.5c0,3.2-2.7,5.9-6,5.9H218c-3.2,0-5.9-2.6-5.9-5.9V14.7c0-3.2,2.6-5.9,5.9-5.9h15.1
		C236.3,8.8,239.1,11.4,239.1,14.7z M231.6,17.1c0-0.9-0.8-1.7-1.7-1.7h-8.6c-0.9,0-1.7,0.8-1.7,1.7v10.8c0,0.9,0.8,1.7,1.7,1.7h8.6
		c0.9,0,1.7-0.8,1.7-1.7V17.1z"/>
	<path class="st12" d="M270.4,14.7v6.6c0,2.9-2.1,5.5-5.3,5.9l5.4,8.9h-8.1l-5.4-8.8h-6v8.8h-7.5V8.8h21
		C267.6,8.8,270.4,11.4,270.4,14.7z M262.9,17.1c0-0.9-0.7-1.7-1.7-1.7H251v5.4h10.2c0.9,0,1.7-0.8,1.7-1.7V17.1z"/>
</g>
<text transform="matrix(1 0 0 1 -24.5 -87.5)" style="font-family:'KommonGrotesk-Medium'; font-size:12px;">COMPANY LTD</text>
<g>
	<path class="st12" d="M54.8,46.1c0-2.7,1.3-4.2,3.5-4.2c0.9,0,1.6,0.3,2.1,0.7c0.6,0.5,0.9,1.2,0.9,2h-1.2
		c-0.1-1.1-0.7-1.7-1.8-1.7c-1.5,0-2.2,1-2.2,3.1c0,2.2,0.8,3.2,2.2,3.2c1.1,0,1.8-0.6,1.8-1.7h1.2c0,0.9-0.3,1.6-0.9,2.1
		c-0.6,0.5-1.3,0.7-2.1,0.7C56.1,50.3,54.8,48.8,54.8,46.1z"/>
	<path class="st12" d="M62.2,46.1c0-2.7,1.2-4.2,3.4-4.2c2.2,0,3.4,1.6,3.4,4.2c0,2.6-1.2,4.2-3.4,4.2
		C63.5,50.3,62.2,48.7,62.2,46.1z M65.7,42.9c-1.5,0-2.2,1.1-2.2,3.2c0,2.1,0.7,3.1,2.2,3.1c1.5,0,2.2-1,2.2-3.1
		C67.8,44,67.1,42.9,65.7,42.9z"/>
	<path class="st12" d="M70.5,50.2V42h1.2l2.4,4.5l2.4-4.5h1.2v8.2h-1.2v-5.8l-1.9,3.5h-0.9l-2-3.5v5.8H70.5z"/>
	<path class="st12" d="M79.5,50.2V42h2.6c2.1,0,3.1,0.9,3.1,2.7c0,1.6-1,2.6-3.3,2.6h-1.2v2.9H79.5z M80.7,46.3H82
		c1.4,0,1.9-0.5,1.9-1.6c0-1.2-0.5-1.7-1.8-1.7h-1.4V46.3z"/>
	<path class="st12" d="M90.7,50.2l-0.7-2H87l-0.7,2H85l2.9-8.2h1.2l2.9,8.2H90.7z M87.3,47.2h2.4l-1.2-3.7L87.3,47.2z"/>
	<path class="st12" d="M93.1,50.2V42h1.2l3.6,5.9V42h1.2v8.2H98l-3.7-6v6H93.1z"/>
	<path class="st12" d="M105.5,42h1.4l-2.7,4.9v3.3h-1.2v-3.3l-2.7-4.9h1.4l2,3.7L105.5,42z"/>
	<path class="st12" d="M110.9,50.2V42h1.2v7.2h3.7v1H110.9z"/>
	<path class="st12" d="M117.4,50.2V43h-2.3v-1h5.8v1h-2.3v7.2H117.4z"/>
	<path class="st12" d="M122,50.2V42h2.2c1.2,0,2.2,0.4,2.9,1.1s1.1,1.7,1.1,3c0,1.2-0.4,2.2-1.2,3c-0.8,0.7-1.8,1.1-3,1.1H122z
		 M123.2,49.2h0.9c0.9,0,1.5-0.3,2.1-0.8c0.5-0.5,0.8-1.3,0.8-2.3c0-2.1-1.1-3.1-2.8-3.1h-1V49.2z"/>
</g>
</svg>
